<?xml version="1.0" encoding="UTF-8"?>
<!DOCTYPE svg PUBLIC "-//W3C//DTD SVG 1.1//EN" "http://www.w3.org/Graphics/SVG/1.1/DTD/svg11.dtd">
<!-- Creator: CorelDRAW X7 -->
<svg xmlns="http://www.w3.org/2000/svg" xml:space="preserve" width="100" height="100" version="1.1" style="shape-rendering:geometricPrecision; text-rendering:geometricPrecision; image-rendering:optimizeQuality; fill-rule:evenodd; clip-rule:evenodd"
viewBox="0 0 4200 3500"
 xmlns:xlink="http://www.w3.org/1999/xlink">
 <defs>
  <style type="text/css">
   <![CDATA[
    .fil0 {fill:#0E82E2}
   ]]>
  </style>
 </defs>
 <g id="Layer_x0020_1">
  <metadata id="CorelCorpID_0Corel-Layer"/>
  <path class="fil0" d="M3076 2812c12,29 40,52 80,52 42,0 68,-23 79,-51 4,-12 7,-24 7,-36 0,-12 -2,-25 -7,-36 -10,-27 -35,-49 -73,-49 -46,0 -74,21 -86,49 -5,11 -7,23 -7,35 0,12 2,24 7,36zm-1308 -649c53,0 96,43 96,96 0,53 -43,95 -96,95 -53,0 -95,-42 -95,-95 0,-53 42,-96 95,-96zm332 950c53,0 96,42 96,95 0,53 -43,96 -96,96 -53,0 -96,-43 -96,-96 0,-53 43,-95 96,-95zm355 -2878c104,23 202,57 292,102 85,43 159,84 230,132 70,48 137,102 206,171l0 0c15,16 30,31 45,47 15,17 30,32 44,49 70,79 128,165 177,257 48,91 87,188 120,288 157,467 39,932 -214,1352l7 12c19,32 38,65 38,118 0,40 -6,79 -20,114 -13,32 -32,60 -60,82 -14,11 -27,20 -40,27 -57,33 -117,42 -172,32 -56,-11 -106,-42 -145,-90 -9,-12 -17,-24 -24,-37 -12,-21 -19,-42 -22,-64 -4,-21 -5,-42 -5,-64 0,-64 30,-121 75,-163 46,-42 109,-69 175,-69 22,0 34,3 47,7 4,1 9,3 15,4 104,-174 178,-301 221,-498 58,-263 43,-509 -41,-763 -32,-96 -79,-190 -135,-279 -60,-95 -132,-183 -207,-259 -11,-11 -18,-17 -26,-24 -4,-2 -8,-6 -14,-11 -8,-7 -13,-12 -18,-16 -6,-6 -11,-11 -19,-17 -10,-8 -21,-16 -30,-24 -47,-36 -77,-60 -142,-99 -63,-38 -130,-72 -203,-101 -68,-26 -140,-49 -217,-65 -120,-25 -309,-40 -428,-27 -57,6 -118,17 -179,32 -249,60 -444,164 -630,334 -44,41 -86,84 -123,131 -39,50 -67,85 -92,124 -26,38 -49,80 -81,144 -108,216 -156,458 -140,700 15,236 91,471 230,680 38,57 62,85 85,112 56,64 96,99 151,154 13,13 25,25 44,39l0 0 85 63 0 0c14,11 28,21 42,30l0 0c15,10 29,19 46,27l1 1 18 9c59,32 113,61 179,85 39,15 74,26 111,37 36,10 74,20 118,28 60,12 92,34 105,57 8,13 10,26 9,39 -2,12 -7,24 -14,34 -15,22 -41,37 -63,37 -31,0 -85,-11 -142,-26 -78,-22 -164,-51 -206,-67 -33,-14 -72,-32 -111,-51 -43,-22 -86,-46 -120,-66 -49,-30 -119,-81 -184,-136 -59,-50 -115,-102 -147,-142 -6,-8 -12,-15 -19,-22 -7,-8 -14,-16 -23,-26 -48,-60 -90,-116 -128,-176 -38,-61 -72,-125 -103,-199 -49,-117 -80,-213 -99,-315 -18,-102 -25,-209 -25,-348 0,-186 45,-374 120,-548 192,-441 590,-791 1061,-898 69,-16 142,-27 215,-33 166,-15 337,-4 499,32zm-1301 1069c-9,-21 -31,-37 -65,-37 -25,0 -43,16 -50,37l0 0c-4,8 -5,17 -5,26 -1,9 1,18 4,26 8,20 26,35 57,35 31,0 50,-16 59,-36 3,-8 5,-17 5,-26 0,-8 -2,-17 -5,-25zm1111 -539c-11,-13 -18,-30 -18,-51 0,-9 4,-19 9,-29 6,-11 13,-23 19,-28 37,-35 92,-17 147,2l0 0 12 4 1 0c58,19 97,34 135,51 38,17 74,37 126,67 194,110 357,299 450,502 34,72 60,149 78,226 26,110 34,225 26,338l0 0c-20,278 -145,555 -348,748 -53,51 -111,97 -166,133 -87,58 -166,98 -249,126 -83,28 -169,46 -270,60 -41,6 -84,9 -127,8 -48,0 -94,-4 -136,-10 -93,-13 -187,-37 -277,-71 -294,-113 -478,-313 -623,-585 -54,-103 -87,-228 -100,-357 -14,-131 -7,-267 19,-386 -48,-29 -77,-72 -90,-119 -11,-38 -11,-79 -1,-118 10,-38 29,-74 57,-104 38,-39 91,-65 156,-65 60,0 111,23 148,58 24,22 42,48 54,77 13,29 19,60 19,92 0,51 -17,102 -56,144 -57,61 -92,63 -116,64 -15,1 -20,1 -32,105 -4,36 -7,76 -8,114 -1,39 0,77 5,112l4 22c9,69 14,102 40,180 92,277 284,487 548,603 80,35 164,62 236,71 107,15 200,17 289,5 89,-11 174,-35 265,-72 86,-35 181,-95 264,-167 141,-122 254,-298 303,-479 12,-46 24,-109 31,-171l0 -1c15,-150 -4,-287 -53,-430 -82,-240 -278,-462 -505,-564 -62,-28 -129,-48 -216,-75 -18,-5 -37,-15 -50,-30zm-88 1017l0 532c79,-39 333,-182 443,-244l43 -24 0 -533c-6,3 -12,7 -19,10 -7,5 -15,9 -22,13l-388 215 -1 0c-16,10 -33,19 -50,28l-1 0 -5 3zm-365 -510c-75,42 -145,81 -186,103l199 117 0 0c13,7 28,16 47,27 79,45 218,124 227,124 8,0 155,-82 287,-157 80,-45 155,-87 194,-107 -42,-21 -124,-67 -210,-116 -127,-72 -262,-148 -271,-148 -8,0 -155,82 -287,157zm-438 802l0 -671c0,-75 34,-92 95,-123 17,-8 37,-18 60,-32l0 0 0 0 367 -203 1 -1c54,-27 91,-49 118,-65 40,-23 60,-35 84,-35 24,0 44,12 84,35 27,16 64,37 118,65l1 0 459 254 0 0 0 0c16,9 31,19 43,34l1 1c12,16 19,36 19,64l0 671c0,32 -6,53 -17,68 -11,16 -26,25 -45,36l-1 1 -597 329 0 0c-66,40 -85,28 -142,-6 -15,-9 -33,-20 -56,-32 -5,-2 -8,-4 -12,-6 -36,-17 -87,-42 -87,-93 0,-20 8,-40 21,-54 12,-14 30,-23 51,-23 38,0 54,10 71,20 4,3 7,5 11,7l0 -533 -5 -3 0 0c-87,-46 -175,-95 -261,-144 -83,-47 -177,-99 -220,-121l0 531c19,10 38,20 56,31l0 1c37,21 52,53 50,81 0,12 -4,24 -10,34 -6,9 -15,18 -25,24 -26,15 -65,16 -108,-10l0 0 0 0c-12,-7 -24,-14 -36,-20 -48,-24 -88,-45 -88,-112zm692 -1312c-25,-12 -45,-38 -45,-84 0,-27 22,-49 49,-59 10,-4 20,-5 31,-6 10,0 21,2 31,6 25,11 45,35 45,77 0,31 -22,55 -48,66 -10,4 -21,6 -31,7 -11,0 -22,-2 -32,-7z"/>
 </g>
</svg>
