<svg 		fill="#0e82e2"
            height="50" viewBox="0 0 512.001 512" width="50" xmlns="http://www.w3.org/2000/svg">
    <path d="m256 180.78125c-41.304688 0-74.910156 33.605469-74.910156 74.910156 0 41.304688 33.605468 74.90625 74.910156 74.90625s74.910156-33.601562 74.910156-74.90625c0-41.304687-33.605468-74.910156-74.910156-74.910156zm0 119.855469c-24.78125 0-44.945312-20.164063-44.945312-44.945313 0-24.785156 20.164062-44.945312 44.945312-44.945312 24.785156 0 44.945312 20.160156 44.945312 44.945312 0 24.78125-20.160156 44.945313-44.945312 44.945313zm0 0"/>
    <path d="m241.019531 240.707031h29.960938v29.964844h-29.960938zm0 0"/>
    <path d="m256 120.855469c-102.03125 0-201.183594 71.527343-247.539062 125.027343l-8.460938 9.765626 8.421875 9.804687c43.558594 50.683594 142.367187 126.070313 247.578125 126.070313 94.914062 0 194.761719-64.617188 247.578125-126.070313l8.421875-9.804687-8.460938-9.769532c-44.757812-51.65625-143.496093-125.023437-247.539062-125.023437zm0 240.707031c-79.808594 0-159.949219-49.105469-215.648438-105.824219 27.511719-27.726562 113.308594-104.921875 215.648438-104.921875 79.828125 0 159.957031 48.6875 215.652344 104.917969-55.679688 56.703125-135.742188 105.828125-215.652344 105.828125zm0 0"/>
    <path d="m30.273438 29.964844h119.855468v-29.964844h-149.816406v150.816406h29.960938zm0 0"/>
    <path d="m90.203125 120.855469v-30.964844h29.960937v-29.960937h-59.925781v60.925781zm0 0"/>
    <path d="m511.691406 150.816406v-150.816406h-149.820312v29.964844h119.855468v120.851562zm0 0"/>
    <path d="m451.761719 120.855469v-60.925781h-59.925781v29.960937h29.964843v30.964844zm0 0"/>
    <path d="m.3125 361.5625v149.816406h149.816406v-29.960937h-119.855468v-119.855469zm0 0"/>
    <path d="m60.238281 391.527344v59.925781h59.925781v-29.964844h-29.960937v-29.960937zm0 0"/>
    <path d="m481.726562 481.417969h-119.855468v29.960937h149.820312v-149.816406h-29.964844zm0 0"/>
    <path d="m421.800781 391.527344v29.960937h-29.964843v29.964844h59.925781v-59.925781zm0 0"/>
</svg>