<?xml version="1.0" encoding="UTF-8"?>
<!DOCTYPE svg PUBLIC "-//W3C//DTD SVG 1.1//EN" "http://www.w3.org/Graphics/SVG/1.1/DTD/svg11.dtd">
<!-- Creator: CorelDRAW X7 -->
<svg xmlns="http://www.w3.org/2000/svg" xml:space="preserve" width="100" height="100" version="1.1" style="shape-rendering:geometricPrecision; text-rendering:geometricPrecision; image-rendering:optimizeQuality; fill-rule:evenodd; clip-rule:evenodd"
viewBox="0 0 4200 3500"
 xmlns:xlink="http://www.w3.org/1999/xlink">
 <defs>
  <style type="text/css">
   <![CDATA[
    .fil1 {fill:#0E82E2}
    .fil0 {fill:#0E82E2;fill-rule:nonzero}
   ]]>
  </style>
 </defs>
 <g id="Layer_x0020_1">
  <metadata id="CorelCorpID_0Corel-Layer"/>
  <g id="_2383808092096">
   <path class="fil0" d="M934 268l32 0 1 0c43,0 77,37 77,79 0,43 -34,80 -77,80l-1 0 -32 0c-43,0 -82,17 -111,46l0 0c-28,29 -46,68 -46,111l0 2332c0,43 18,82 46,111 29,28 68,46 111,46l1799 0 4 0c44,0 80,36 80,79 0,44 -36,80 -80,80l-4 0 -1799 0c-87,0 -166,-36 -223,-93 -57,-57 -93,-136 -93,-223l0 -2332c0,-87 36,-166 93,-223l0 0c58,-57 137,-93 223,-93zm2292 2805l2 0 0 0 38 0c43,0 82,-18 111,-46 28,-29 46,-68 46,-111l0 -2332c0,-43 -18,-82 -46,-111l0 0c-28,-29 -68,-46 -111,-46l-1815 0 -1 0c-43,0 -77,-37 -77,-80 0,-42 34,-79 77,-79l1 0 1815 0c86,0 165,36 223,93l0 0c57,57 93,136 93,223l0 2332c0,87 -36,166 -93,223 -57,57 -136,93 -223,93l-38 0 0 0 -2 0c-44,0 -80,-36 -80,-80 0,-43 36,-79 80,-79zm-1972 -400l-113 0c-19,0 -35,-16 -35,-35l0 -856c0,-20 16,-36 35,-36l113 0c20,0 35,16 35,36l0 856c0,19 -15,35 -35,35zm348 -289l0 -1271c0,-99 25,-177 80,-231 54,-53 134,-81 245,-81 111,0 192,28 246,81 54,54 79,132 79,231l0 1271c0,100 -25,178 -79,232 -54,54 -134,82 -246,82 -111,0 -192,-28 -245,-82 -55,-54 -80,-132 -80,-232zm218 -1381c-21,24 -31,61 -31,110l0 1271c0,50 10,88 32,112 21,23 56,36 106,36 51,0 85,-13 107,-36 22,-24 32,-62 32,-112l0 -1271c0,-49 -10,-86 -32,-110 -21,-23 -56,-35 -107,-35 -50,0 -85,12 -107,35zm1294 1077l0 304c0,99 -25,177 -77,232 -53,54 -133,82 -243,82 -109,0 -189,-28 -242,-82 -52,-55 -77,-133 -77,-232l0 -254c0,-19 16,-35 36,-35l115 0c20,0 36,16 36,35l0 254c0,50 9,88 30,112 21,23 54,36 102,36 49,0 82,-13 103,-36 21,-24 30,-62 30,-112l0 -304c0,-85 -9,-132 -31,-163 -21,-30 -58,-50 -114,-76l-2 -1c-23,-10 -29,-13 -33,-15 -1,0 -2,0 -3,-1 -171,-75 -269,-119 -269,-404l0 -307c0,-99 25,-177 78,-230 52,-54 132,-82 241,-82 110,0 190,28 242,82 53,53 78,131 78,230l0 256c0,20 -16,36 -36,36l-116 0c-19,0 -35,-16 -35,-36l0 -256c0,-50 -9,-87 -30,-110 -20,-23 -54,-35 -103,-35 -48,0 -82,12 -102,35 -21,23 -30,60 -30,110l0 307c0,85 9,132 31,163 21,30 58,50 114,76l2 1c23,10 29,13 33,14 1,1 2,1 3,2 171,75 269,119 269,404z"/>
   <circle class="fil1" cx="1211" cy="347" r="92"/>
   <circle class="fil1" cx="2981" cy="3153" r="92"/>
   <circle class="fil1" cx="1199" cy="1549" r="109"/>
  </g>
 </g>
</svg>
