<?xml version="1.0" encoding="UTF-8"?>
<!DOCTYPE svg PUBLIC "-//W3C//DTD SVG 1.1//EN" "http://www.w3.org/Graphics/SVG/1.1/DTD/svg11.dtd">
<!-- Creator: CorelDRAW X7 -->
<svg xmlns="http://www.w3.org/2000/svg" xml:space="preserve" width="100" height="100" version="1.1" style="shape-rendering:geometricPrecision; text-rendering:geometricPrecision; image-rendering:optimizeQuality; fill-rule:evenodd; clip-rule:evenodd"
viewBox="0 0 4200 3500"
 xmlns:xlink="http://www.w3.org/1999/xlink">
 <defs>
  <style type="text/css">
   <![CDATA[
    .fil0 {fill:#0E82E2}
   ]]>
  </style>
 </defs>
 <g id="Layer_x0020_1">
  <metadata id="CorelCorpID_0Corel-Layer"/>
  <path class="fil0" d="M3519 2359c-63,0 -100,-35 -100,-86l-2 -776c0,-52 12,-126 -45,-151 -78,-34 -292,51 -292,-108 0,-63 59,-94 125,-94l627 0c63,0 118,41 115,101 -2,67 -56,94 -122,95 -180,4 -224,-28 -223,168l3 490c0,54 13,279 -14,316 -13,18 -44,45 -72,45zm-776 -1583c0,141 156,105 156,23 0,-129 -156,-94 -156,-23zm-1842 2014c123,0 99,-165 8,-165 -47,0 -82,39 -84,80 -2,40 36,85 76,85zm831 -1042c0,-60 52,-126 109,-126l40 0c49,0 109,50 109,133 0,165 -258,168 -258,-7zm423 7c0,-319 -429,-411 -557,-125 -109,245 134,485 373,389 106,-43 184,-152 184,-264zm478 -689c0,-117 -335,-293 -484,-331 -346,-88 -666,-27 -947,193 -23,18 -30,28 -55,47 -104,79 -36,173 34,165 38,-4 94,-64 122,-88 291,-247 765,-262 1096,-19 21,16 37,27 56,46 122,125 178,25 178,-13zm-776 1740c169,0 345,-47 460,-105 73,-37 114,-60 176,-106 56,-42 205,-143 113,-217 -49,-40 -94,-11 -128,22 -55,53 -140,110 -208,144 -318,158 -671,124 -956,-89 -40,-29 -134,-153 -203,-66 -97,120 261,293 344,333 100,49 286,84 402,84zm-1035 -2015c0,67 54,79 102,79 22,0 122,-99 175,-139 185,-139 455,-253 711,-253 199,0 275,4 459,65 58,20 102,37 152,60 35,16 108,71 149,71 68,0 126,-97 26,-159l-86 -47c-62,-30 -119,-54 -184,-75 -490,-163 -983,-67 -1368,244 -40,33 -136,104 -136,154zm298 2007c-41,0 -74,29 -82,67 -20,92 192,172 260,202 849,378 1601,-263 1601,-340 0,-48 -11,-102 -78,-102 -43,0 -155,119 -249,182 -30,20 -59,39 -93,56 -137,70 -259,120 -435,145 -555,79 -871,-210 -924,-210zm-736 -439c-40,0 -76,-22 -97,-45 -23,-25 -37,-65 -37,-112l0 -909c0,-192 267,-219 267,23l0 870c0,93 -41,173 -133,173zm-290 -1113l0 1011c0,119 140,259 258,259 98,0 160,-6 241,-88 41,-41 81,-109 81,-187l0 -995c0,-162 -241,-386 -487,-188 -47,38 -93,125 -93,188zm1802 1011c-111,0 -153,2 -256,-50 -98,-48 -193,-131 -237,-233 -90,-213 -58,-387 78,-564 10,-13 15,-20 29,-33 356,-313 864,-58 864,378 0,144 -60,244 -141,345 -13,17 -43,41 -61,56 -66,53 -182,101 -276,101zm-705 -533c0,289 146,526 386,633 191,85 365,87 559,6 78,-32 132,-80 193,-128 40,-33 109,-136 134,-187 93,-187 91,-407 3,-596 -34,-73 -87,-135 -141,-189 -43,-43 -134,-107 -197,-131 -225,-89 -507,-63 -688,96 -84,75 -129,122 -184,232 -31,62 -65,175 -65,264zm2915 -503l0 46c-5,58 -29,113 -73,157 -12,11 -55,42 -68,49 -62,32 -121,24 -196,24l0 768c0,229 -293,342 -448,166 -45,-49 -62,-98 -61,-190 1,-238 0,-482 0,-721 0,-39 -76,-20 -117,-23 -32,-3 -81,-22 -105,-37 -218,-125 -108,-473 112,-473l721 0c57,0 138,47 166,77 41,46 64,101 69,157z"/>
 </g>
</svg>
