<?xml version="1.0" encoding="UTF-8"?>
<!DOCTYPE svg PUBLIC "-//W3C//DTD SVG 1.1//EN" "http://www.w3.org/Graphics/SVG/1.1/DTD/svg11.dtd">
<!-- Creator: CorelDRAW X7 -->
<svg xmlns="http://www.w3.org/2000/svg" xml:space="preserve" width="100" height="100" version="1.1" style="shape-rendering:geometricPrecision; text-rendering:geometricPrecision; image-rendering:optimizeQuality; fill-rule:evenodd; clip-rule:evenodd"
viewBox="0 0 4200 3500"
 xmlns:xlink="http://www.w3.org/1999/xlink">
 <defs>
  <style type="text/css">
   <![CDATA[
    .fil0 {fill:#0E82E2}
   ]]>
  </style>
 </defs>
 <g id="Layer_x0020_1">
  <metadata id="CorelCorpID_0Corel-Layer"/>
  <g id="_2420167278192">
   <path class="fil0" d="M3292 698l77 77 0 0c16,16 25,33 30,52 5,19 7,39 7,62l0 1422 0 940 0 26c0,28 -14,55 -35,78 -30,30 -78,53 -122,53l-66 0c-43,0 -77,-35 -77,-78 0,-43 33,-78 76,-78l1 0 48 -1c11,0 24,-9 24,-20l0 -796 -2290 0 0 796c0,14 12,26 26,26l1737 -5 0 1c41,2 74,36 74,77 0,42 -33,76 -74,78l0 0 -4 0 -1753 0c-14,0 -27,-2 -40,-6l0 0c-32,-8 -61,-25 -82,-47 -21,-23 -35,-50 -35,-78l0 -26 0 -940 0 -1455 0 0 0 -2c0,-40 33,-74 74,-74 41,0 74,53 74,74 0,22 0,3 0,5l0 1435 2296 0 0 -1387c-2,0 -3,0 -5,0l0 0 -647 0 -11 0 -2 0c-9,0 -17,-7 -17,-17l0 -659c0,-2 0,-4 0,-6l-1605 0c-1,0 -3,2 -4,4l0 0 0 0c-5,10 -5,26 -5,32l0 128c0,2 0,-16 0,5 0,21 -33,74 -74,74 -41,0 -74,-33 -74,-74l0 -133c0,-57 17,-99 42,-129 31,-37 74,-54 115,-54l1650 0c16,0 32,3 47,9 14,6 28,15 39,26l1 1 44 44 0 0 540 540zm-1400 1859l72 0c16,0 30,13 30,29l0 423c0,50 -13,90 -42,119 -26,27 -65,42 -118,42 -21,0 -41,-3 -59,-9 -21,-7 -39,-17 -50,-27 -10,-9 -13,-23 -7,-35l25 -51 0 0c0,-1 1,-3 2,-4 9,-13 28,-17 41,-7 5,3 11,6 19,8 6,2 13,4 20,4 15,0 24,-4 29,-11 6,-8 8,-23 8,-40l0 -412c0,-16 14,-29 30,-29zm458 473c12,-8 19,-21 19,-37 0,-41 -52,-62 -109,-84 -86,-34 -180,-70 -180,-188 0,-49 21,-94 61,-126 36,-29 86,-46 147,-46 37,0 72,6 103,17 33,11 61,28 82,49l0 0c10,10 11,27 2,39l-38 48c-1,1 -2,2 -3,3 -11,12 -29,13 -41,2 -13,-12 -27,-21 -43,-27 -17,-6 -35,-9 -58,-9 -26,0 -46,5 -60,15 -11,9 -17,21 -17,35 0,42 52,61 108,82 87,33 182,68 182,189 0,53 -24,97 -64,128 -1,1 -1,1 -2,2 -40,31 -95,48 -157,48 -42,0 -87,-9 -126,-26 -37,-16 -69,-40 -86,-71l0 0c-7,-10 -6,-25 3,-34l41 -45c1,-1 2,-2 4,-3 12,-11 31,-9 41,4 14,16 33,29 53,38 24,10 49,16 71,16 26,0 51,-7 67,-19zm-651 -1818l0 203c0,36 -9,71 -23,102 -12,27 -29,52 -50,72 21,21 38,46 50,73 14,31 23,65 23,102l0 203c0,11 4,21 12,29l0 0c7,7 17,12 29,12 20,0 39,8 53,22l0 0c14,14 22,32 22,53 0,21 -8,40 -22,53l0 0 0 0c-14,14 -33,22 -53,22 -53,0 -101,-21 -136,-56l0 0 0 0c-34,-35 -56,-82 -56,-135l0 -203c0,-27 -11,-52 -29,-70 -18,-18 -43,-29 -70,-29 -21,0 -40,-9 -53,-22 -14,-14 -22,-33 -22,-54 0,-20 8,-39 22,-53l0 0c13,-13 32,-22 53,-22 27,0 52,-11 70,-29 18,-18 29,-43 29,-70l0 -203c0,-52 21,-100 56,-134l0 -1c35,-35 83,-56 136,-56 20,0 38,8 52,21l1 1c14,13 22,32 22,53 0,20 -8,38 -21,52l-1 1c-14,14 -32,22 -53,22 -11,0 -21,4 -29,11l0 1c-8,7 -12,18 -12,29zm822 203l0 -203c0,-11 -4,-22 -12,-29 -7,-7 -18,-12 -29,-12 -21,0 -39,-8 -53,-22l0 0c-14,-14 -22,-33 -22,-53 0,-21 8,-40 22,-53 14,-14 32,-22 53,-22 53,0 101,21 135,56l0 0c35,35 57,82 57,135l0 203c0,27 11,52 29,70l0 1c18,18 43,28 70,28 21,0 39,9 53,22l0 0c14,14 22,33 22,53 0,21 -8,40 -22,54 -13,13 -32,22 -53,22 -27,0 -52,11 -70,29l0 0c-18,18 -29,43 -29,70l0 203c0,53 -22,100 -57,135l-1 1c-34,34 -82,55 -134,55 -21,0 -39,-8 -53,-22l0 0 0 0c-14,-13 -22,-32 -22,-53 0,-21 8,-39 22,-53l0 0c14,-14 32,-22 53,-22 11,0 22,-5 29,-12 8,-7 12,-18 12,-29l0 -203c0,-37 8,-71 23,-102 12,-27 29,-52 50,-73 -21,-20 -38,-45 -50,-72 -15,-31 -23,-66 -23,-102zm-474 55c16,-16 38,-26 63,-26 25,0 47,10 63,26l0 0 0 0c16,16 26,39 26,63l0 400c0,25 -10,47 -26,63l0 0 0 0 0 0c-16,16 -39,26 -63,26 -24,0 -47,-10 -63,-26l0 0 0 0c-16,-16 -26,-38 -26,-63l0 -400c0,-24 10,-47 26,-63l0 0zm1098 -710l-421 -422 0 422 421 0z"/>
   <circle class="fil0" cx="886" cy="626" r="92"/>
   <circle class="fil0" cx="2953" cy="3330" r="92"/>
   <circle class="fil0" cx="2110" cy="1278" r="92"/>
  </g>
 </g>
</svg>
