<?xml version="1.0" encoding="UTF-8"?>
<!DOCTYPE svg PUBLIC "-//W3C//DTD SVG 1.1//EN" "http://www.w3.org/Graphics/SVG/1.1/DTD/svg11.dtd">
<!-- Creator: CorelDRAW X7 -->
<svg xmlns="http://www.w3.org/2000/svg" xml:space="preserve" width="100" height="100" version="1.1" style="shape-rendering:geometricPrecision; text-rendering:geometricPrecision; image-rendering:optimizeQuality; fill-rule:evenodd; clip-rule:evenodd"
viewBox="0 0 4200 3500"
 xmlns:xlink="http://www.w3.org/1999/xlink">
 <defs>
  <style type="text/css">
   <![CDATA[
    .fil0 {fill:#0E82E2}
    .fil1 {fill:#0E82E2}
    .fil2 {fill:#0E82E2;fill-rule:nonzero}
   ]]>
  </style>
 </defs>
 <g id="Layer_x0020_1">
  <metadata id="CorelCorpID_0Corel-Layer"/>
  <path class="fil0" d="M2577 811l-186 -185 -112 55 -39 -118 -263 0 -40 118 -111 -55 -186 185 56 112 -119 40 0 262 119 40 -56 112 186 186 111 -56 40 118 263 0 39 -118 112 56 186 -186 -56 -112 118 -39 0 -263 -118 -40 56 -112zm717 -36c-30,0 -53,-23 -53,-53 0,-29 23,-53 53,-53l248 0 0 319 253 0 0 2218 -1427 0c-24,121 -132,212 -260,212 -128,0 -235,-91 -260,-212l-1426 0 0 -1671 0 -1 0 0c0,-29 24,-52 53,-52 29,0 52,23 53,52l0 0 0 1 0 1565 1421 0 0 53c0,87 71,159 159,159 88,0 160,-72 160,-159l0 -53 1421 0 0 -2006 -147 0 0 1859 -2868 0 0 -1859 -146 0 0 104 0 2 0 0c-1,28 -25,51 -53,51 -29,0 -53,-23 -53,-51l0 0 0 -2 0 -210 252 0 0 -319 249 0c29,0 53,24 53,53 0,30 -24,53 -53,53l0 0 -143 0 0 2072 1275 0 0 -497c0,-30 24,-54 53,-54 30,0 53,24 53,54l0 0 0 497 1275 0 0 -2072 -142 0 0 0zm-14 1813c29,0 53,24 53,53 0,30 -24,54 -53,54l0 0 -952 0 0 0c-30,0 -54,-24 -54,-54 0,-29 24,-53 54,-53l0 0 952 0 0 0zm0 -272c29,0 53,24 53,53 0,29 -24,53 -53,53l0 0 -952 0 0 0 0 0c-30,0 -54,-24 -54,-53 0,-29 24,-53 54,-53l0 0 952 0 0 0zm-1391 272c29,0 53,24 53,53 0,30 -24,54 -53,54l0 0 -943 0 0 0c-29,0 -53,-24 -53,-54 0,-29 24,-53 53,-53l0 0 943 0 0 0zm0 -272c29,0 53,24 53,53 0,29 -24,53 -53,53l0 0 -943 0 0 0 0 0c-29,0 -53,-24 -53,-53 0,-29 24,-53 53,-53l0 0 943 0 0 0zm622 -425l0 142 0 0c0,29 -24,54 -53,54 -30,0 -54,-24 -54,-54l0 0 0 0 0 -142 -242 0 0 142 0 0 0 0c0,29 -24,54 -53,54 -29,0 -53,-24 -53,-54l0 0 0 -142 -243 0 0 142 0 0 0 0c0,29 -24,54 -53,54 -29,0 -53,-24 -53,-54l0 0 0 -142 -396 0 0 -436 -162 0 0 0 0 0c-29,0 -53,-23 -53,-53 0,-29 24,-53 53,-53l0 0 162 0 0 -232 -162 0 0 0c-29,0 -53,-24 -53,-54 0,-29 24,-53 53,-53l0 0 0 0 162 0 0 -232 -162 0 0 0 0 0c-29,0 -53,-24 -53,-53 0,-30 24,-53 53,-53l1 0 161 0 0 -53 0 -56 0 -22 244 -244 182 0 0 -162 0 0c0,-29 24,-53 53,-53 29,0 53,24 53,53l0 0 0 162 213 0 0 -161 0 -1c-1,-29 24,-53 53,-53 29,0 53,24 53,53l0 0 0 162 212 0 0 -162 0 0c0,-29 24,-53 54,-53 29,0 53,24 53,53l0 0 0 162 212 0 106 0 106 0 0 266 0 106 0 3 162 0 0 0c30,-1 54,23 54,53 0,29 -24,53 -54,53l0 0 -162 0 0 232 162 0 0 0c30,0 54,24 54,53 0,30 -24,54 -54,54l0 0 -162 0 0 232 162 0 0 0c30,0 54,24 54,53 0,30 -24,53 -54,53l0 0 -162 0 0 436c-381,0 -49,0 -394,0zm-403 -867c39,0 71,31 71,70 0,39 -32,71 -71,71 -39,0 -70,-32 -70,-71 0,-39 31,-70 70,-70zm0 2066c39,0 71,32 71,71 0,38 -32,70 -71,70 -39,0 -70,-32 -70,-70 0,-39 31,-71 70,-71zm-1632 -1791c38,0 70,32 70,71 0,39 -32,70 -70,70 -39,0 -71,-31 -71,-70 0,-39 32,-71 71,-71zm942 -714l181 -181 1200 0 0 1381 -1381 0 0 -1200zm690 268c-133,0 -241,108 -241,241 0,133 108,242 241,242 133,0 242,-109 242,-242 0,-133 -109,-241 -242,-241zm0 386c-80,0 -145,-65 -145,-145 0,-80 65,-145 145,-145 80,0 145,65 145,145 0,80 -65,145 -145,145zm435 -207l0 124 -111 37 -8 21c-3,7 -5,13 -8,19l-9 20 52 105 -87 87 -105 -52 -20 9c-7,3 -13,5 -19,8l-21 8 -37 111 -124 0 -37 -111 -21 -8c-6,-3 -12,-5 -18,-8l-21 -9 -104 52 -88 -87 52 -105 -9 -21c-3,-5 -5,-11 -7,-18l-8 -21 -111 -37 0 -124 111 -37 8 -21c2,-6 4,-12 7,-18l9 -21 -52 -105 88 -87 104 52 21 -9c6,-3 12,-5 18,-8l22 -8 36 -110 124 0 37 110 21 8c6,3 13,5 19,8l20 9 105 -52 87 87 -52 105 9 21c3,6 5,12 8,18l8 21 111 37z"/>
  <path class="fil0" d="M-2313 1835c-62,0 -99,-35 -99,-86l-3 -776c0,-51 13,-126 -45,-151 -77,-33 -292,52 -292,-107 0,-63 60,-94 126,-94l627 0c63,0 117,40 115,101 -3,67 -56,93 -123,95 -179,4 -223,-29 -222,168l2 490c0,54 13,278 -13,315 -14,19 -44,45 -73,45zm-776 -1583c0,142 157,105 157,24 0,-129 -157,-94 -157,-24zm-1842 2015c123,0 99,-165 8,-165 -47,0 -82,38 -84,79 -1,40 37,86 76,86zm831 -1043c0,-60 53,-125 110,-125l39 0c49,0 110,50 110,133 0,165 -259,167 -259,-8zm423 8c0,-319 -429,-412 -556,-126 -109,245 133,486 373,389 106,-42 183,-152 183,-263zm479 -690c0,-116 -335,-293 -485,-331 -345,-87 -665,-26 -947,193 -23,19 -29,28 -54,47 -104,80 -36,174 33,166 39,-4 95,-65 122,-88 291,-248 765,-262 1097,-19 21,15 37,27 55,46 122,124 179,24 179,-14zm-776 1740c168,0 345,-47 459,-104 73,-37 115,-60 177,-106 56,-42 205,-143 113,-218 -49,-40 -94,-11 -128,23 -55,53 -140,110 -209,144 -317,158 -670,123 -956,-89 -39,-30 -134,-153 -203,-67 -96,120 261,293 344,334 101,48 286,83 403,83zm-1035 -2014c0,66 54,78 102,78 21,0 121,-99 175,-139 185,-138 454,-253 711,-253 199,0 275,5 459,66 58,19 102,37 152,60 34,16 108,70 149,70 67,0 126,-96 25,-158l-86 -48c-61,-29 -118,-53 -183,-75 -490,-162 -984,-67 -1368,245 -41,32 -136,103 -136,154zm298 2006c-41,0 -74,29 -82,68 -20,92 191,171 259,201 849,379 1602,-263 1602,-339 0,-49 -12,-102 -78,-102 -43,0 -155,118 -250,182 -30,20 -59,39 -93,56 -136,69 -258,120 -435,145 -555,78 -871,-211 -923,-211zm-737 -439c-40,0 -76,-22 -96,-44 -24,-26 -37,-66 -37,-112l0 -909c0,-192 266,-219 266,23l0 870c0,93 -40,172 -133,172zm-290 -1112l0 1011c0,118 140,258 259,258 97,0 160,-5 241,-88 40,-41 80,-108 80,-186l0 -995c0,-162 -241,-386 -486,-189 -47,38 -94,125 -94,189zm1803 1011c-111,0 -153,1 -256,-50 -98,-49 -193,-131 -237,-234 -91,-212 -58,-387 77,-563 11,-13 16,-21 30,-33 356,-313 864,-58 864,378 0,144 -60,244 -141,345 -13,17 -43,41 -62,56 -65,53 -181,101 -275,101zm-706 -533c0,288 147,526 386,632 192,86 366,87 560,7 77,-32 132,-81 192,-129 41,-32 110,-136 135,-186 93,-187 91,-407 2,-596 -34,-73 -87,-135 -140,-189 -43,-44 -135,-107 -197,-132 -225,-89 -508,-62 -689,97 -84,74 -129,122 -183,232 -31,61 -66,175 -66,264zm2916 -504l0 47c-5,57 -30,113 -73,156 -12,12 -55,43 -68,50 -62,32 -122,23 -196,23l0 768c0,230 -294,342 -449,167 -44,-50 -61,-98 -61,-190 2,-239 1,-482 1,-721 0,-40 -76,-21 -118,-24 -32,-2 -80,-22 -105,-36 -217,-126 -107,-473 113,-473l721 0c56,0 138,46 166,77 41,45 64,101 69,156z"/>
  <path class="fil1" d="M-2755 2288c12,29 39,52 80,52 41,0 67,-22 79,-51 4,-11 6,-23 6,-35 0,-13 -2,-25 -6,-36 -11,-28 -35,-49 -73,-49 -47,0 -75,21 -87,48 -4,11 -7,23 -7,35 0,13 3,25 8,36zm-1308 -648c52,0 95,43 95,95 0,53 -43,96 -95,96 -53,0 -96,-43 -96,-96 0,-52 43,-95 96,-95zm332 949c52,0 95,43 95,96 0,52 -43,95 -95,95 -53,0 -96,-43 -96,-95 0,-53 43,-96 96,-96zm355 -2877c103,23 202,57 291,102 85,42 160,83 230,131 71,48 137,103 206,172l0 0c16,15 31,31 46,47 15,16 29,32 44,48 70,79 128,166 176,258 48,91 87,188 121,287 156,467 38,932 -214,1352l7 13c19,32 38,65 38,118 0,40 -6,79 -20,114 -13,31 -33,59 -61,82 -13,10 -26,19 -40,27 -57,32 -116,42 -172,31 -55,-10 -106,-41 -144,-90 -9,-11 -17,-23 -25,-37 -12,-21 -18,-41 -22,-63 -3,-21 -4,-42 -4,-64 0,-64 29,-121 75,-163 46,-43 109,-69 175,-69 21,0 34,3 46,6 5,2 10,3 16,4 103,-173 177,-300 221,-498 57,-263 42,-508 -42,-763 -31,-95 -78,-190 -134,-278 -61,-95 -132,-184 -208,-260 -11,-11 -17,-16 -26,-23 -3,-3 -7,-6 -14,-11 -7,-7 -13,-12 -18,-17 -5,-5 -11,-11 -19,-17 -10,-8 -20,-16 -30,-23 -46,-37 -76,-60 -141,-99 -63,-38 -131,-72 -204,-101 -68,-27 -140,-49 -217,-65 -120,-25 -309,-41 -427,-28 -58,7 -119,18 -179,32 -249,60 -444,164 -630,335 -45,40 -86,84 -124,131 -39,50 -66,85 -92,123 -25,39 -49,80 -81,144 -108,217 -155,459 -139,700 15,237 91,472 229,680 39,58 63,85 86,112 56,64 95,100 151,155 12,12 25,24 43,38l1 1 84 63 0 0c15,11 29,21 43,30l0 0c14,9 29,18 45,27l2 1 17 9c60,32 114,61 180,85 38,14 74,26 110,37 37,10 75,19 118,28 60,12 92,33 106,56 8,13 10,27 8,40 -1,12 -6,24 -13,34 -15,22 -42,37 -63,37 -31,0 -85,-11 -142,-27 -78,-21 -164,-50 -206,-67 -33,-13 -72,-31 -111,-51 -44,-22 -87,-46 -120,-66 -50,-29 -119,-81 -184,-135 -60,-50 -115,-103 -147,-143 -6,-7 -13,-14 -20,-22 -7,-7 -14,-15 -22,-25 -48,-60 -90,-116 -129,-177 -38,-60 -72,-124 -103,-198 -48,-117 -79,-213 -98,-316 -19,-102 -25,-209 -25,-347 0,-186 44,-374 120,-549 191,-440 589,-791 1060,-898 70,-15 142,-27 216,-33 166,-14 337,-4 499,33zm-1302 1068c-9,-21 -30,-37 -64,-37 -25,0 -43,17 -51,37l0 0c-3,9 -5,18 -5,27 0,9 2,18 5,26 7,19 26,34 57,34 30,0 50,-15 58,-35 4,-8 6,-17 6,-26 -1,-9 -2,-18 -6,-26zm1112 -538c-11,-13 -18,-30 -18,-52 0,-8 3,-19 9,-29 5,-11 13,-22 18,-27 37,-36 92,-17 148,1l0 0 11 4 2 1c58,19 97,33 135,51 38,17 74,37 126,66 194,111 356,300 450,502 33,73 60,150 78,227 25,110 34,224 26,337l0 0c-20,278 -145,556 -348,749 -53,50 -112,96 -166,133 -87,58 -167,97 -250,126 -83,28 -169,46 -269,60 -41,6 -85,8 -128,8 -47,-1 -94,-4 -136,-10 -93,-13 -187,-37 -276,-71 -294,-113 -479,-314 -623,-586 -54,-102 -87,-227 -101,-356 -13,-132 -6,-267 20,-387 -48,-29 -77,-71 -91,-118 -11,-38 -10,-79 -1,-118 10,-38 30,-75 58,-104 37,-39 90,-65 156,-65 60,0 110,22 148,58 23,21 42,48 54,77 12,29 19,60 19,92 0,51 -18,102 -56,143 -57,61 -93,63 -116,65 -16,0 -21,1 -32,105 -4,36 -8,75 -9,114 0,38 1,77 6,112l3 22c10,68 15,102 41,180 92,277 284,486 548,603 80,35 164,61 235,71 108,15 201,16 290,5 88,-11 173,-36 265,-73 86,-34 180,-94 263,-167 141,-122 254,-297 303,-479 13,-45 24,-108 31,-170l0 -1c16,-150 -3,-287 -52,-431 -83,-239 -278,-461 -506,-564 -62,-28 -128,-48 -216,-74 -18,-6 -36,-15 -49,-30zm-89 1017l0 532c79,-39 333,-182 444,-245l43 -24 0 -532c-7,3 -13,6 -19,10 -8,4 -15,9 -23,12l-388 216 0 0c-17,10 -33,18 -51,27l-1 1 -5 3zm-364 -511c-75,42 -146,82 -186,103l199 118 0 0c12,7 28,16 47,27 78,45 217,124 227,124 7,0 154,-83 287,-157 80,-45 155,-87 193,-107 -41,-21 -124,-68 -210,-117 -127,-71 -262,-148 -270,-148 -8,0 -155,83 -287,157zm-439 803l0 -672c0,-75 34,-91 95,-122 18,-9 38,-19 60,-32l0 0 1 -1 366 -203 1 0c55,-28 91,-49 118,-65 41,-24 61,-36 85,-36 23,0 43,12 84,36 27,16 63,37 117,64l1 1 460 254 0 0 0 0c16,9 31,19 42,33l1 2c12,16 20,36 20,63l0 672c0,32 -6,52 -17,68 -11,16 -26,25 -46,36l0 1 -598 329 0 0c-65,39 -84,28 -141,-6 -15,-9 -33,-20 -56,-32 -5,-3 -9,-4 -12,-6 -37,-18 -87,-43 -87,-93 0,-20 7,-40 20,-55 13,-14 30,-23 51,-23 38,0 54,10 71,21 4,2 8,5 12,7l0 -533 -5 -3 0 0c-88,-46 -175,-96 -261,-144 -83,-47 -177,-100 -220,-122l0 532c18,10 37,20 56,31l0 0c37,22 51,54 50,82 -1,12 -5,23 -11,33 -6,10 -14,18 -25,25 -26,15 -64,16 -107,-10l0 0 0 -1c-12,-7 -25,-13 -36,-19 -49,-25 -89,-45 -89,-112zm692 -1313c-25,-11 -44,-37 -44,-83 0,-28 22,-50 49,-60 10,-3 20,-5 30,-5 11,0 22,2 32,6 25,10 44,34 44,77 0,31 -21,55 -48,66 -10,4 -20,6 -31,6 -11,0 -22,-2 -32,-7z"/>
  <g id="_2420167304432">
   <path class="fil0" d="M-4522 1105l-113 0c-93,0 -169,76 -169,170l0 113c0,93 76,169 169,169l113 0c94,0 169,-76 169,-169l0 -113c0,-94 -75,-170 -169,-170zm56 283c0,31 -25,56 -56,56l-113 0c-31,0 -56,-25 -56,-56l0 -113c0,-31 25,-57 56,-57l113 0c31,0 56,26 56,57l0 113z"/>
   <path class="fil0" d="M-3619 1105l-112 0c-94,0 -170,76 -170,170l0 113c0,93 76,169 170,169l112 0c94,0 170,-76 170,-169l0 -113c0,-94 -76,-170 -170,-170zm57 283c0,31 -25,56 -57,56l-112 0c-32,0 -57,-25 -57,-56l0 -113c0,-31 25,-57 57,-57l112 0c32,0 57,26 57,57l0 113z"/>
   <path class="fil0" d="M-3110 1223l0 -118c0,-124 -102,-225 -226,-226l-529 0 65 -46c13,-10 21,-25 23,-42 1,-16 -5,-32 -17,-44l-334 -335c-8,-120 -109,-213 -230,-210 -121,3 -218,100 -220,220 -3,121 90,222 210,230l128 128 -139 99 -538 0c-125,1 -226,102 -226,226l0 118c-163,28 -282,169 -282,334 0,165 119,306 282,334l0 118c0,124 101,225 226,226l405 0c-21,58 -8,123 34,169 -42,46 -55,111 -34,169l-405 0c-125,1 -226,102 -226,226l0 57c0,15 6,29 16,40 11,10 25,16 40,16l90 0c82,0 87,-113 0,-113l-33 0c0,-62 50,-113 113,-113l1581 0c62,0 113,51 113,113l-1419 0c-78,0 -70,113 0,113l1470 0c1,0 2,0 3,0 1,0 1,0 2,0 15,0 30,-6 40,-16 11,-11 17,-25 17,-40l0 -57c0,-124 -102,-225 -226,-226l-406 0c22,-58 9,-123 -34,-169 43,-46 56,-111 34,-169l406 0c124,-1 226,-102 226,-226l0 -118c163,-28 282,-169 282,-334 0,-165 -119,-306 -282,-334zm-2033 552c-100,-25 -169,-115 -169,-218 0,-103 69,-192 169,-218l0 436zm984 -1233l239 238 -137 99 -128 0 65 -46c14,-10 22,-25 24,-42 1,-16 -5,-32 -17,-44l-126 -125c33,-20 61,-47 80,-80zm-194 -1c-62,0 -113,-51 -113,-113 0,-63 51,-113 113,-113 63,0 113,50 113,113 0,62 -50,113 -113,113zm0 1807c-31,0 -56,-26 -56,-57 0,-31 25,-56 56,-56l452 0c31,0 57,25 57,56 0,31 -26,57 -57,57 -31,0 -56,25 -56,56 0,31 25,56 56,56 31,0 57,26 57,57 0,31 -26,56 -57,56l-452 0c-31,0 -56,-25 -56,-56 0,-31 25,-57 56,-57 32,0 57,-25 57,-56 0,-31 -25,-56 -57,-56zm791 -226l-1129 0 0 -113 1002 0 0 -113 -1002 0 0 -57c0,-31 25,-56 56,-56l1016 0c32,0 57,25 57,56l0 57 0 0 -127 0 0 113 127 0 0 113zm339 -113c0,62 -51,113 -113,113l-113 0 0 -283c0,-93 -76,-169 -170,-169l-1016 0c-93,0 -169,76 -169,169l0 283 -113 0c-63,0 -113,-51 -113,-113l0 -904c0,-62 50,-113 113,-113l1581 0c62,0 113,51 113,113l0 904zm113 -234l0 -436c99,26 169,115 169,218 0,103 -70,193 -169,218z"/>
   <path class="fil0" d="M-2150 -476l-1186 0c-63,0 -113,51 -113,113l0 1016c0,63 50,113 113,113l621 0 0 283c-1,49 31,92 77,107 48,16 100,-2 129,-43l220 -347 139 0c62,0 112,-50 113,-113l0 -1016c-1,-62 -51,-113 -113,-113zm0 1129l-170 0c-19,0 -37,10 -47,27l-235 369 0 -339c0,-15 -6,-29 -17,-40 -10,-11 -25,-17 -40,-17l-677 0 0 -1016 1186 0 0 1016 0 0z"/>
   <path class="fil0" d="M-3005 96c15,0 30,-6 40,-17l86 -85 187 140c22,17 53,15 73,-5l186 -186 0 33c0,31 26,56 57,56 31,0 56,-25 56,-56l0 -169c0,-7 -1,-14 -4,-20 -1,-2 -1,-4 -2,-6 -6,-11 -15,-20 -27,-26 -1,0 -1,0 -2,0l0 -1c-6,-2 -13,-3 -19,-3 -1,-1 -2,-1 -2,-1l-170 0c-31,0 -56,25 -56,57 0,31 25,56 56,56l33 0 -151 151 -187 -140c-22,-17 -54,-14 -73,6l-120 120c-17,16 -21,40 -13,61 9,21 30,35 52,35z"/>
   <path class="fil0" d="M-3110 541c15,0 29,-6 40,-17 10,-10 16,-25 16,-40l0 -113c0,-31 -25,-56 -56,-56 -32,0 -57,25 -57,56l0 113c0,15 6,30 17,40 10,11 25,17 40,17z"/>
   <path class="fil0" d="M-2884 145c-15,0 -30,6 -40,17 -11,11 -17,25 -17,40l0 282c0,31 25,57 57,57 31,0 56,-26 56,-57l0 -282c0,-15 -6,-29 -17,-40 -10,-11 -25,-17 -39,-17z"/>
   <path class="fil0" d="M-2659 258c-15,0 -29,6 -40,17 -10,10 -16,25 -16,40l0 169c0,31 25,57 56,57 32,0 57,-26 57,-57l0 -169c0,-15 -6,-30 -17,-40 -10,-11 -25,-17 -40,-17z"/>
   <path class="fil0" d="M-2433 145c-15,0 -29,6 -40,17 -10,11 -16,25 -16,40l0 282c0,31 25,57 56,57 31,0 57,-26 57,-57l0 -282c0,-15 -6,-29 -17,-40 -10,-11 -25,-17 -40,-17z"/>
   <circle class="fil1" cx="-4813" cy="2858" r="70"/>
   <circle class="fil1" cx="-2630" cy="1319" r="70"/>
   <circle class="fil1" cx="-3110" cy="188" r="70"/>
  </g>
  <g id="_2420167303056">
   <path class="fil2" d="M-4183 1202c29,0 58,4 85,10 63,17 120,50 161,99 42,49 68,113 68,187 0,28 -4,57 -11,87 -22,86 -66,150 -126,197 -64,52 -145,81 -233,96 -81,13 -164,1 -237,-24 -93,-32 -173,-84 -221,-130 -209,-202 -281,-451 -271,-708 10,-236 89,-479 195,-696 -213,162 -370,382 -455,625 -107,309 -97,657 64,978 91,179 207,337 348,468 139,129 300,232 485,306 253,102 527,133 793,97 267,-37 527,-141 748,-307 277,-208 476,-517 568,-853 90,-327 78,-680 -61,-990 -110,-243 -283,-443 -491,-603 -136,-105 -286,-192 -443,-263 151,137 312,306 428,485 140,217 217,449 142,665l-1 4c-21,60 -50,111 -84,156 -35,45 -77,84 -124,118 -67,48 -134,70 -202,70 -71,1 -139,-23 -204,-67 -31,-20 -39,-62 -19,-93 8,-11 18,-19 29,-24l0 0c18,-9 59,-47 91,-110 4,-7 8,-15 11,-23 -34,10 -68,12 -96,7 -37,-7 -61,-43 -54,-80 1,-2 1,-4 2,-6 13,-61 21,-125 26,-187l1 -12c-55,51 -122,102 -189,117 -36,9 -73,-14 -81,-50 -3,-13 -2,-25 1,-37 7,-25 13,-62 16,-105 -66,79 -184,175 -405,285l0 0 0 0 -4 3c-2,1 -4,1 -5,2 -132,66 -356,180 -361,331 17,-7 31,-13 49,-17l0 0c20,-5 41,-8 67,-8zm52 142c-16,-4 -34,-7 -52,-7 -14,0 -24,2 -34,4l0 0 0 0c-10,2 -21,7 -35,13 -7,2 -15,8 -22,13 -14,12 -27,21 -47,25 -56,12 -88,-9 -107,-101 -57,-270 253,-428 429,-516 2,-1 4,-1 5,-2l5 -3 0 0c356,-177 403,-301 429,-367 9,-25 17,-45 34,-64l0 0c8,-10 19,-17 32,-21 36,-10 73,11 84,46 17,61 24,126 24,185 0,19 -1,38 -2,56 42,-36 81,-79 107,-108 19,-21 33,-36 46,-45l0 0c10,-7 23,-11 37,-11 37,0 68,30 68,67 0,61 -1,128 -7,195 -3,37 -7,74 -12,112 15,-8 28,-19 38,-30 12,-19 33,-31 57,-31 37,0 67,30 67,68 0,86 -23,161 -54,222 -18,35 -40,66 -62,92 15,4 30,6 45,6 39,-1 80,-15 123,-46 37,-26 69,-56 96,-91 26,-34 48,-73 64,-118l1 -3c59,-169 -9,-363 -128,-547 -197,-304 -534,-580 -707,-703 -24,-15 -37,-46 -28,-75 10,-36 47,-57 83,-47 304,86 607,226 862,422 225,173 413,390 532,654 153,340 166,725 68,1081 -100,365 -316,700 -618,926 -239,180 -520,293 -810,333 -289,39 -586,6 -862,-105 -200,-81 -376,-193 -526,-333 -153,-142 -279,-312 -377,-506 -178,-355 -189,-741 -70,-1083 122,-351 381,-657 734,-836l1 -1 0 0c20,-10 45,-10 66,3 32,19 42,61 22,93 -154,251 -289,564 -301,861 -8,222 53,435 229,605 37,35 98,75 171,100 55,18 115,28 172,18 67,-11 126,-32 171,-67 37,-30 64,-70 78,-125 5,-19 7,-37 7,-54 0,-40 -13,-74 -35,-100 -22,-26 -54,-45 -91,-54z"/>
   <circle class="fil1" cx="-3737" cy="1075" r="95"/>
   <circle class="fil1" cx="-4351" cy="-17" r="95"/>
   <path class="fil2" d="M-2497 1535c8,-36 45,-58 81,-50 36,9 59,45 50,81 -64,270 -206,515 -404,706 -193,184 -439,318 -720,372 -237,47 -472,32 -688,-34 -225,-67 -429,-189 -596,-353 -26,-26 -27,-69 0,-95 26,-27 68,-27 95,-1 151,148 336,259 539,320 197,59 410,73 625,31 254,-50 477,-171 651,-338 180,-172 308,-394 367,-639z"/>
   <circle class="fil1" transform="matrix(1.13684 0.256687 -0.256687 1.13684 -2378.44 1315.71)" r="81"/>
  </g>
  <g id="_2420167301488">
   <path class="fil1" d="M-2539 175l77 77 0 0c15,15 24,32 30,52 5,18 6,39 6,62l0 1422 0 940 0 26c0,28 -13,55 -34,77 -30,31 -78,54 -123,54l-65 0c-43,0 -78,-35 -78,-78 0,-43 34,-79 77,-79l1 0 48 0c11,0 24,-9 24,-20l0 -796 -2291 0 0 796c0,14 13,26 27,26l1736 -5 0 0c42,2 74,36 74,78 0,42 -32,76 -74,78l0 0 -3 0 -1753 0c-14,0 -27,-2 -41,-6l0 0c-31,-9 -61,-26 -82,-48 -21,-22 -34,-49 -34,-77l0 -26 0 -940 0 -1456 0 0 0 -1c-1,-41 33,-74 74,-74 40,0 73,53 73,74 0,21 0,3 0,5l0 1435 2297 0 0 -1387c-2,0 -4,0 -6,0l0 0 -647 0 -11 0 -1 0c-10,0 -17,-8 -17,-17l0 -660c0,-2 0,-3 0,-5l-1605 0c-2,0 -3,2 -4,4l0 0 0 0c-5,10 -6,25 -6,32l0 128c0,2 0,-17 0,5 0,21 -33,73 -73,73 -41,0 -74,-33 -74,-73l0 -133c0,-57 17,-100 42,-130 31,-36 73,-54 115,-54l1649 0c17,0 33,4 47,10 15,6 28,14 40,26l1 1 43 43 0 0 541 541zm-1401 1858l72 0c17,0 30,13 30,30l0 422c0,50 -13,91 -41,120 -27,27 -65,42 -118,42 -21,0 -42,-4 -59,-10 -22,-6 -40,-17 -51,-27 -9,-8 -12,-23 -6,-35l24 -50 0 0c1,-2 2,-3 2,-4 10,-14 28,-17 41,-8 5,4 12,7 19,9 6,2 13,3 21,3 15,0 24,-4 28,-10 7,-9 9,-23 9,-41l0 -411c0,-17 13,-30 29,-30zm458 474c12,-9 20,-21 20,-37 0,-42 -53,-62 -109,-84 -87,-34 -181,-70 -181,-188 0,-50 22,-95 62,-127 35,-28 85,-46 147,-46 37,0 72,7 103,17 33,12 61,29 81,49l0 0c10,11 12,27 2,39l-37 49c-1,1 -2,2 -3,3 -11,12 -30,13 -42,2 -13,-12 -27,-21 -43,-27 -16,-7 -35,-10 -57,-10 -26,0 -47,6 -60,16 -11,8 -17,20 -17,35 0,42 52,61 108,82 87,32 181,68 181,189 0,53 -24,97 -63,128 -1,1 -2,1 -2,1 -40,31 -96,49 -157,49 -42,0 -88,-9 -127,-26 -37,-17 -68,-41 -86,-71l0 0c-6,-11 -5,-25 4,-35l40 -44c2,-1 3,-3 4,-4 13,-10 32,-8 42,4 13,16 32,29 53,38 23,11 48,16 71,16 26,0 50,-6 66,-18zm-651 -1818l0 202c0,37 -8,72 -22,103 -13,27 -30,51 -51,72 21,21 38,45 51,72 14,31 22,66 22,103l0 202c0,12 5,22 12,30l0 0c8,7 18,12 29,12 21,0 40,8 53,22l0 0c14,13 22,32 22,53 0,20 -8,39 -22,53l0 0 0 0c-13,13 -32,22 -53,22 -52,0 -100,-22 -135,-56l0 0 0 0c-35,-35 -56,-83 -56,-136l0 -202c0,-28 -11,-53 -29,-71 -18,-18 -43,-29 -71,-29 -20,0 -39,-8 -53,-22 -13,-13 -22,-32 -22,-53 0,-21 9,-39 22,-53l0 0c14,-14 33,-22 53,-22 28,0 53,-11 71,-29 18,-18 29,-43 29,-71l0 -202c0,-53 21,-100 55,-135l1 -1c35,-34 83,-56 135,-56 21,0 39,8 52,21l1 1c14,14 22,33 22,53 0,21 -8,39 -21,53l-1 1c-13,13 -32,22 -53,22 -11,0 -21,4 -28,11l-1 1c-7,7 -12,17 -12,29zm823 202l0 -202c0,-12 -5,-22 -12,-29 -8,-8 -18,-12 -29,-12 -21,0 -40,-9 -53,-22l-1 -1c-13,-13 -22,-32 -22,-53 0,-20 9,-39 22,-53 14,-13 33,-22 54,-22 52,0 100,22 135,56l0 0c35,35 56,83 56,136l0 203c0,27 11,52 29,70l1 1c18,17 42,28 70,28 20,0 39,8 53,22l0 0c13,14 22,32 22,53 0,21 -9,40 -22,53 -14,14 -33,22 -53,22 -28,0 -53,11 -71,29l0 0c-18,18 -29,43 -29,71l0 202c0,53 -21,101 -56,136l-1 1c-35,34 -82,55 -134,55 -21,0 -40,-9 -53,-22l0 0 -1 0c-13,-14 -22,-33 -22,-53 0,-21 9,-40 22,-53l1 0c13,-14 32,-22 53,-22 11,0 21,-5 29,-12 7,-8 12,-18 12,-30l0 -202c0,-37 8,-72 22,-103 13,-27 30,-51 51,-72 -21,-21 -38,-45 -51,-72 -14,-31 -22,-66 -22,-103zm-474 56c16,-16 38,-26 62,-26 25,0 47,10 63,26l0 0 0 0c17,16 27,38 27,63l0 400c0,24 -10,46 -27,63l0 0 0 0 0 0c-16,16 -38,26 -63,26 -24,0 -46,-10 -62,-26l0 0 -1 0c-16,-16 -26,-39 -26,-63l0 -400c0,-25 10,-47 27,-63l0 0zm1098 -711l-422 -421 0 421 422 0z"/>
   <circle class="fil1" cx="-4945" cy="102" r="92"/>
   <circle class="fil1" cx="-2878" cy="2807" r="92"/>
   <circle class="fil1" cx="-3722" cy="754" r="92"/>
  </g>
  <g id="_2420167299824">
   <path class="fil2" d="M-4897 -255l31 0 1 0c43,0 77,36 77,79 0,43 -34,79 -77,79l-1 0 -31 0c-44,0 -83,18 -112,46l1 1c-29,28 -47,68 -47,111l0 2331c0,43 18,83 47,111 28,29 68,47 111,47l1798 0 5 0c44,0 79,35 79,79 0,44 -35,79 -79,79l-5 0 -1798 0c-87,0 -166,-35 -223,-93 -58,-57 -93,-136 -93,-223l0 -2331c0,-87 35,-166 93,-223l0 0c57,-58 136,-93 223,-93zm2291 2805l3 0 0 0 37 0c44,0 83,-18 111,-47 29,-28 47,-68 47,-111l0 -2331c0,-43 -18,-83 -47,-111l1 -1c-29,-28 -68,-46 -112,-46l-1815 0 -1 0c-43,0 -77,-36 -77,-79 0,-43 34,-79 77,-79l1 0 1815 0c87,0 166,35 223,93l1 0c57,57 92,136 92,223l0 2331c0,87 -35,166 -92,223 -58,58 -137,93 -224,93l-37 0 0 0 -3 0c-44,0 -79,-35 -79,-79 0,-44 35,-79 79,-79zm-1971 -400l-113 0c-20,0 -35,-16 -35,-35l0 -857c0,-19 15,-35 35,-35l113 0c19,0 35,16 35,35l0 857c0,19 -16,35 -35,35zm348 -289l0 -1271c0,-100 25,-177 79,-231 54,-53 135,-81 246,-81 111,0 192,28 245,81 55,54 80,131 80,231l0 1271c0,99 -25,177 -79,232 -54,54 -135,82 -246,82 -111,0 -192,-28 -246,-82 -54,-55 -79,-133 -79,-232zm218 -1381c-22,23 -32,60 -32,110l0 1271c0,49 10,87 32,111 22,24 57,36 107,36 50,0 85,-12 106,-36 22,-24 32,-62 32,-111l0 -1271c0,-50 -10,-87 -31,-110 -22,-23 -57,-35 -107,-35 -51,0 -86,12 -107,35zm1293 1076l0 305c0,99 -24,177 -77,231 -53,55 -132,83 -242,83 -110,0 -189,-28 -242,-83 -53,-54 -77,-132 -77,-231l0 -254c0,-19 16,-35 35,-35l116 0c19,0 35,16 35,35l0 254c0,50 10,88 31,112 20,23 53,35 102,35 49,0 82,-12 102,-35 21,-24 31,-62 31,-112l0 -305c0,-84 -9,-132 -31,-163 -21,-30 -59,-49 -115,-75l-1 -1c-23,-10 -30,-13 -34,-15 0,0 -1,-1 -2,-1 -171,-76 -269,-119 -269,-404l0 -307c0,-100 24,-177 77,-231 53,-53 132,-81 242,-81 110,0 189,28 242,81 53,54 77,131 77,231l0 256c0,19 -16,35 -35,35l-116 0c-19,0 -35,-16 -35,-35l0 -256c0,-50 -10,-87 -31,-111 -20,-22 -53,-34 -102,-34 -49,0 -82,12 -102,34 -21,24 -31,61 -31,111l0 307c0,84 9,132 31,163 21,30 59,49 115,75l1 1c23,11 30,13 34,15 1,0 1,1 2,1 171,76 269,119 269,404z"/>
   <circle class="fil1" cx="-4620" cy="-176" r="92"/>
   <circle class="fil1" cx="-2850" cy="2629" r="92"/>
   <circle class="fil1" cx="-4633" cy="1026" r="109"/>
  </g>
  <g id="_2420167296432">
   <path class="fil2" d="M-2975 -316c33,0 60,26 60,59 0,33 -27,59 -60,59l-1988 0c-60,0 -115,27 -155,69l0 0 0 0c-41,43 -66,103 -66,169l0 1068 0 561c0,66 25,126 66,169 1,1 1,2 2,3 40,41 94,66 153,66l179 0 2284 0c60,0 115,-26 155,-69 1,-1 2,-2 3,-2 39,-43 64,-102 64,-167l0 -1629c0,-66 -26,-126 -66,-169l-1 0c-40,-42 -95,-69 -155,-69l-46 0c-33,0 -60,-26 -60,-59 0,-33 27,-59 60,-59l46 0c94,0 179,40 241,106l0 0 0 0c61,64 99,153 99,250l0 1629c0,96 -36,183 -96,247 -1,1 -2,2 -3,4 -62,65 -147,105 -241,105l-2284 0 -179 0c-92,0 -176,-39 -238,-102 -1,-1 -2,-2 -3,-3 -61,-65 -99,-153 -99,-251l0 -561 0 -1068c0,-97 38,-186 99,-250l0 0c62,-66 147,-106 241,-106l1988 0z"/>
   <path class="fil2" d="M-4095 2323c0,-33 26,-59 59,-59 33,0 59,26 59,59l0 110c0,87 -44,149 -111,197 -58,42 -134,71 -211,95l-204 62c-31,10 -64,-8 -74,-39 -10,-31 8,-64 39,-74l204 -62c67,-21 132,-45 178,-78 37,-26 61,-59 61,-101l0 -110z"/>
   <path class="fil2" d="M-4520 2790c-33,0 -60,-26 -60,-59 0,-33 27,-59 60,-59l1578 0c32,0 59,26 59,59 0,33 -27,59 -59,59l-1578 0z"/>
   <circle class="fil1" cx="-4036" cy="2135" r="80"/>
   <path class="fil2" d="M-3182 42l-1618 0c-47,0 -90,19 -122,51 -31,31 -50,75 -50,123l0 842 0 442c0,48 19,92 50,124 32,31 75,51 122,51l148 0 1978 0c48,0 91,-20 122,-51 32,-32 51,-76 51,-124l0 -1284c0,-48 -19,-92 -51,-123 -31,-32 -74,-51 -122,-51l-508 0zm-1618 -119l1618 0 508 0c80,0 153,33 206,86 53,54 86,127 86,207l0 1284c0,81 -33,154 -86,207 -53,53 -126,86 -206,86l-1978 0 -148 0c-80,0 -153,-33 -205,-86 -53,-53 -86,-126 -86,-207l0 -442 0 -842c0,-80 33,-153 86,-207 52,-53 125,-86 205,-86z"/>
   <path class="fil2" d="M-3486 2118c0,-32 26,-59 59,-59 33,0 59,27 59,59l0 315c0,42 24,75 61,101 46,33 111,57 178,78l204 62c31,10 49,43 39,74 -10,31 -43,49 -74,39l-203 -62c-78,-24 -154,-53 -212,-95 -67,-48 -111,-110 -111,-197l0 -315z"/>
   <g>
    <path class="fil2" d="M-3759 881l-14 -7 0 0 -1 0 -464 -247 0 510 501 293 501 -293 0 -515 -460 249c-1,1 -3,2 -5,3l-13 7c-14,7 -30,7 -45,0zm22 -102l487 -265 -487 265zm504 -273c7,-2 15,-3 22,-3 22,0 41,9 55,23 1,1 3,3 4,4 11,14 18,31 18,50l0 572c0,2 0,5 -1,8 -1,10 -4,21 -9,30 -7,11 -17,21 -29,28l-1 1 -537 314c-17,9 -37,9 -52,-1l-538 -314 0 0c-12,-7 -21,-17 -28,-28 -5,-9 -9,-20 -10,-30 0,-3 0,-6 0,-8l0 -572 0 0 0 -37c0,-28 23,-50 50,-50 9,0 17,2 24,5l0 0 528 281 504 -273zm0 0l0 0 0 0z"/>
   </g>
   <path class="fil2" d="M-4238 622c0,27 -23,50 -51,50 -28,0 -50,-23 -50,-50l0 -79c0,-28 23,-50 50,-50 28,0 51,22 51,50l0 79zm250 -207c-25,14 -56,5 -69,-19 -14,-24 -6,-55 19,-69 98,-55 167,-92 212,-115 20,-11 34,-19 46,-25 12,-7 26,-10 40,-10 13,0 26,4 38,10l0 0 541 294c17,9 27,26 27,44l0 0 0 99c0,28 -23,51 -51,51 -28,0 -51,-23 -51,-51l0 -68 -505 -275c-10,6 -23,12 -38,20 -45,24 -115,61 -209,114z"/>
   <path class="fil2" d="M-3864 938c-14,-10 -29,-19 -43,-28 -10,18 -19,35 -29,51 -9,17 -18,34 -28,50 -9,17 -18,33 -27,49 -9,17 -18,33 -27,49 -9,-29 -18,-57 -27,-86 -9,-28 -18,-56 -27,-84 -8,-27 -17,-55 -26,-82 -8,-27 -17,-54 -25,-81 -13,-8 -26,-16 -39,-24 11,33 21,65 31,98 11,33 21,66 32,100 11,33 22,68 32,102 11,35 22,69 34,104 9,7 19,15 29,22 11,-19 22,-39 34,-58 11,-20 23,-39 34,-59 12,-20 24,-41 36,-61 12,-21 24,-42 36,-62z"/>
   <path class="fil2" d="M-3892 945l-8 -5 -17 32 -28 50 -28 49 -5 10 -21 38c-5,7 -13,11 -21,11l5 13 4 4 22 -38 35 -59 36 -61 26 -44zm-4 -52l43 27 0 0c10,6 13,18 7,28l-36 62 -36 61 -34 59 -34 58c0,0 -1,1 -1,2 -7,10 -21,12 -30,5l-15 -11 -13 -10c-4,-2 -7,-6 -9,-11l-33 -105 0 0 -32 -100c0,-1 0,-1 0,-2l-32 -100 -31 -97 0 -1c-1,-5 -1,-12 3,-17 6,-10 19,-13 29,-7 6,4 18,12 31,20l6 4c5,2 8,6 10,12l25 81 27 82 26 84 1 2 12 37 3 -6 27 -49 28 -50 28 -50c0,0 0,-1 1,-2 6,-10 19,-13 29,-6z"/>
   <path class="fil2" d="M-3591 1228c11,-7 22,-13 33,-19 0,-41 0,-81 0,-121 1,-41 1,-81 1,-122 16,16 32,32 49,48 16,16 32,32 48,47 1,0 3,-1 5,-2 15,-33 31,-66 47,-99 15,-33 31,-66 46,-98 0,40 0,79 -1,118 0,40 0,79 -1,118 11,-6 21,-12 31,-18 1,-48 1,-96 2,-144 0,-49 0,-98 1,-146 -10,5 -20,10 -30,15 -16,33 -32,67 -47,100 -16,34 -32,68 -48,102 -17,-17 -34,-33 -51,-50 -17,-17 -34,-34 -51,-51 -11,6 -23,12 -34,18 0,51 0,102 0,153 0,50 0,100 0,151z"/>
   <path class="fil2" d="M-3547 1227l-32 18c-4,2 -8,4 -12,4 -12,0 -21,-10 -21,-21l0 -151 0 -153 0 0c0,-8 4,-15 11,-19l34 -17c8,-4 18,-3 25,3l51 51 29 29 36 -75 47 -100 0 0c2,-4 5,-8 9,-10l30 -15 0 0c3,-2 6,-3 10,-3 12,1 21,10 21,22l-1 146 -1 144c0,7 -4,15 -11,19l-31 17 0 0c-3,2 -7,3 -11,3 -11,0 -21,-9 -21,-21l1 -118 0 -23 -5 11 0 1 -47 99 0 0c-2,4 -5,7 -9,9l-4 2c-8,5 -19,5 -26,-3l-17 -16 -31 -31 -13 -13 0 72 -1 120c1,7 -3,15 -10,19zm-23 -278c4,-2 8,-4 13,-4 5,0 11,2 14,6l0 0 49 48 30 29 1 -2 -1 0c-3,-1 -5,-3 -6,-5l-50 -49 -41 -40 -9 5 0 12zm216 -107l1 1 1 0 0 -6 -2 5z"/>
   <path class="fil2" d="M-3787 834c0,-28 22,-50 50,-50 28,0 51,22 51,50l0 573c0,28 -23,51 -51,51 -28,0 -50,-23 -50,-51l0 -573z"/>
   <circle class="fil1" cx="-2765" cy="-257" r="80"/>
   <circle class="fil1" cx="-4146" cy="451" r="64"/>
  </g>
 </g>
</svg>
