<svg height="70" viewBox="-21 -21 682 682.66669" width="70" fill="#0e82e2" xmlns="http://www.w3.org/2000/svg">
    <path d="m338.976562 0h-187.441406v37.492188h-151.203125v602.308593h489.84375v-602.308593h-151.199219zm-149.953124 37.492188h112.460937v37.484374h-112.460937zm263.667968 37.484374v527.332032h-414.867187v-527.332032h113.710937v37.488282h187.441406v-37.488282zm0 0"/>
    <path d="m527.667969 114.964844v397.574218l56.230469 127.460938 56.234374-127.460938v-397.574218zm74.976562 37.488281v37.488281h-37.492187v-37.488281zm-37.492187 112.464844v-37.492188h37.492187v37.492188zm37.492187 37.484375v149.957031h-37.492187v-149.957031zm-18.746093 244.722656-18.746094-42.484375v-14.796875h37.492187v14.796875zm0 0"/>
    <path d="m114.050781 527.335938h262.414063v37.484374h-262.414063zm0 0"/>
    <path d="m313.371094 165.683594-19.417969 33.632812c-9.488281-3.808594-19.527344-6.535156-29.953125-8.03125v-38.832031h-37.488281v38.832031c-10.425781 1.496094-20.460938 4.222656-29.953125 8.03125l-19.417969-33.636718-32.464844 18.742187 19.445313 33.683594c-8.132813 6.417969-15.492188 13.773437-21.90625 21.902343l-33.683594-19.441406-18.746094 32.464844 33.640625 19.421875c-3.808593 9.492187-6.535156 19.523437-8.035156 29.953125h-38.832031v37.484375h38.832031c1.5 10.429687 4.226563 20.464844 8.035156 29.957031l-33.640625 19.417969 18.746094 32.46875 33.683594-19.449219c6.414062 8.136719 13.773437 15.492188 21.90625 21.910156l-19.445313 33.679688 32.464844 18.742188 19.417969-33.632813c9.492187 3.808594 19.527344 6.53125 29.953125 8.03125v38.828125h37.488281v-38.832031c10.425781-1.5 20.464844-4.222657 29.953125-8.027344l19.417969 33.632813 32.464844-18.746094-19.441407-33.675782c8.128907-6.421874 15.488281-13.773437 21.902344-21.910156l33.683594 19.441406 18.742187-32.464843-33.632812-19.417969c3.808594-9.488281 6.53125-19.523438 8.027344-29.953125h38.835937v-37.488281h-38.835937c-1.496094-10.425782-4.222657-20.457032-8.027344-29.949219l33.632812-19.421875-18.742187-32.464844-33.683594 19.441406c-6.414063-8.128906-13.773437-15.484374-21.902344-21.902343l19.441407-33.683594zm-49.371094 155.464844c0 10.335937-8.40625 18.742187-18.746094 18.742187-10.335937 0-18.742187-8.40625-18.742187-18.742187 0-10.335938 8.40625-18.746094 18.742187-18.746094 10.339844 0 18.746094 8.410156 18.746094 18.746094zm-112.464844 0c0-45.257813 32.25-83.125 74.976563-91.835938v38.828125c-21.816407 7.738281-37.488281 28.574219-37.488281 53.007813 0 3.507812.339843 6.9375.957031 10.265624l-33.601563 19.40625c-3.125-9.332031-4.84375-19.300781-4.84375-29.671874zm93.71875 93.71875c-27.863281 0-52.914062-12.234376-70.097656-31.605469l33.59375-19.394531c9.835938 8.414062 22.578125 13.511718 36.503906 13.511718 13.925782 0 26.675782-5.097656 36.503906-13.511718l33.59375 19.394531c-17.179687 19.371093-42.230468 31.605469-70.097656 31.605469zm55.273438-83.453126c.621094-3.328124.957031-6.757812.957031-10.265624 0-24.433594-15.667969-45.269532-37.484375-53.007813v-38.828125c42.726562 8.710938 74.976562 46.578125 74.976562 91.835938 0 10.371093-1.71875 20.339843-4.839843 29.671874zm0 0"/>
</svg>