<?xml version="1.0" encoding="UTF-8"?>
<!DOCTYPE svg PUBLIC "-//W3C//DTD SVG 1.1//EN" "http://www.w3.org/Graphics/SVG/1.1/DTD/svg11.dtd">
<!-- Creator: CorelDRAW X7 -->
<svg xmlns="http://www.w3.org/2000/svg" xml:space="preserve" width="100" height="100" version="1.1" style="shape-rendering:geometricPrecision; text-rendering:geometricPrecision; image-rendering:optimizeQuality; fill-rule:evenodd; clip-rule:evenodd"
viewBox="0 0 4200 3500"
 xmlns:xlink="http://www.w3.org/1999/xlink">
 <defs>
  <style type="text/css">
   <![CDATA[
    .fil0 {fill:#0E82E2}
    .fil1 {fill:#0E82E2}
   ]]>
  </style>
 </defs>
 <g id="Layer_x0020_1">
  <metadata id="CorelCorpID_0Corel-Layer"/>
  <g id="_2383811003616">
   <path class="fil0" d="M1309 1629l-112 0c-94,0 -170,76 -170,169l0 113c0,94 76,169 170,169l112 0c94,0 170,-75 170,-169l0 -113c0,-93 -76,-169 -170,-169zm57 282c0,31 -25,56 -57,57l-112 0c-32,-1 -57,-26 -57,-57l0 -113c0,-31 25,-56 57,-56l112 0c32,0 57,25 57,56l0 113z"/>
   <path class="fil0" d="M2213 1629l-113 0c-94,0 -169,76 -169,169l0 113c0,94 75,169 169,169l113 0c93,0 169,-75 169,-169l0 -113c0,-93 -76,-169 -169,-169zm56 282c0,31 -25,56 -56,57l-113 0c-31,-1 -56,-26 -56,-57l0 -113c0,-31 25,-56 56,-56l113 0c31,0 56,25 56,56l0 113z"/>
   <path class="fil0" d="M2721 1747l0 -118c0,-125 -101,-226 -226,-226l-529 0 65 -47c13,-10 22,-25 23,-41 1,-17 -5,-33 -16,-45l-335 -334c-8,-121 -109,-213 -230,-211 -120,3 -217,100 -220,221 -3,120 90,222 211,229l128 128 -139 100 -539 0c-124,0 -225,101 -226,226l0 118c-163,27 -282,168 -282,333 0,166 119,307 282,334l0 118c1,125 102,226 226,226l406 0c-22,58 -9,124 34,169 -43,46 -56,112 -34,170l-406 0c-124,0 -225,101 -226,226l0 56c0,15 6,29 17,40 10,11 25,17 40,17l90 0c81,0 87,-113 0,-113l-34 0c0,-63 51,-113 113,-113l1581 0c63,0 113,50 113,113l-1419 0c-78,0 -70,113 0,113l1471 0c1,0 1,-1 2,-1 1,0 2,1 3,1 15,0 29,-6 40,-17 10,-11 16,-25 16,-40l0 -56c0,-125 -101,-226 -226,-226l-405 0c21,-58 8,-124 -34,-170 42,-45 55,-111 34,-169l405 0c125,0 226,-101 226,-226l0 -118c163,-27 282,-168 282,-334 0,-165 -119,-306 -282,-333zm-2033 551c-99,-25 -169,-115 -169,-218 0,-102 70,-192 169,-217l0 435zm985 -1233l238 238 -137 100 -127 0 65 -47c13,-10 22,-25 23,-41 1,-17 -5,-33 -16,-45l-126 -125c33,-19 60,-47 80,-80zm-194 -1c-62,0 -113,-51 -113,-113 0,-62 51,-113 113,-113 62,0 113,51 113,113 0,62 -51,113 -113,113zm0 1807c-31,0 -57,-25 -57,-57 0,-31 26,-56 57,-56l452 0c31,0 56,25 56,56 0,32 -25,57 -56,57 -32,0 -57,25 -57,56 0,32 25,57 57,57 31,0 56,25 56,56 0,32 -25,57 -56,57l-452 0c-31,0 -57,-25 -57,-57 0,-31 26,-56 57,-56 31,0 56,-25 56,-57 0,-31 -25,-56 -56,-56zm790 -226l-1129 0 0 -113 1003 0 0 -113 -1003 0 0 -56c0,-31 25,-57 57,-57l1016 0c31,0 56,26 56,57l0 56 0 0 -126 0 0 113 126 0 0 113zm339 -113c0,62 -50,113 -113,113l-113 0 0 -282c0,-94 -76,-170 -169,-170l-1016 0c-94,0 -170,76 -170,170l0 282 -113 0c-62,0 -113,-50 -113,-113l0 -903c0,-63 51,-113 113,-113l1581 0c63,0 113,50 113,113l0 903zm113 -234l0 -435c100,25 170,115 170,217 0,103 -70,193 -170,218z"/>
   <path class="fil0" d="M3681 48l-1186 0c-62,0 -113,50 -113,113l0 1016c0,62 51,113 113,113l621 0 0 282c0,49 31,92 78,107 47,16 100,-1 128,-43l221 -346 138 0c62,0 113,-51 113,-113l0 -1016c0,-63 -51,-113 -113,-113zm0 1129l-169 0c-20,0 -38,10 -48,26l-235 369 0 -339c0,-15 -6,-29 -16,-40 -11,-10 -25,-16 -40,-16l-678 0 0 -1016 1186 0 0 1016 0 0z"/>
   <path class="fil0" d="M2827 619c15,0 29,-6 40,-16l85 -86 187 141c22,16 54,14 74,-6l186 -186 0 33c0,32 25,57 56,57 31,0 57,-25 57,-57l0 -169c-1,-7 -2,-13 -4,-20 -1,-2 -2,-3 -3,-5 -6,-12 -15,-21 -27,-26 0,0 -1,-1 -1,-1l0 0c-6,-3 -13,-4 -20,-4 -1,0 -1,0 -2,0l-169 0c-31,0 -57,25 -57,56 0,31 26,56 57,56l33 0 -151 152 -187 -140c-23,-17 -54,-15 -74,5l-120 120c-16,16 -21,40 -12,62 9,21 29,34 52,34z"/>
   <path class="fil0" d="M2721 1064c15,0 29,-6 40,-16 11,-11 17,-25 17,-40l0 -113c0,-32 -26,-57 -57,-57 -31,0 -56,25 -56,57l0 113c0,15 6,29 16,40 11,10 25,16 40,16z"/>
   <path class="fil0" d="M2947 669c-15,0 -29,6 -40,16 -11,11 -16,25 -16,40l0 283c0,31 25,56 56,56 31,0 56,-25 56,-56l0 -283c0,-15 -6,-29 -16,-40 -11,-10 -25,-16 -40,-16z"/>
   <path class="fil0" d="M3173 782c-15,0 -30,6 -40,16 -11,11 -17,25 -17,40l0 170c0,31 26,56 57,56 31,0 56,-25 56,-56l0 -170c0,-15 -6,-29 -16,-40 -11,-10 -25,-16 -40,-16z"/>
   <path class="fil0" d="M3399 669c-15,0 -30,6 -40,16 -11,11 -17,25 -17,40l0 283c0,31 26,56 57,56 31,0 56,-25 56,-56l0 -283c0,-15 -6,-29 -16,-40 -11,-10 -25,-16 -40,-16z"/>
   <circle class="fil1" cx="1019" cy="3382" r="70"/>
   <circle class="fil1" cx="3202" cy="1842" r="70"/>
   <circle class="fil1" cx="2721" cy="711" r="70"/>
  </g>
 </g>
</svg>
