<svg height="70" viewBox="0 0 512 512" width="70" fill="#0e82e2" xmlns="http://www.w3.org/2000/svg"><path d="m75 60h90v30h-90zm0 0"/><path d="m75 120h90v30h-90zm0 0"/><path d="m75 180h90v30h-90zm0 0"/><path d="m347 60h90v30h-90zm0 0"/><path d="m347 120h90v30h-90zm0 0"/><path d="m347 180h90v30h-90zm0 0"/><path d="m434.421875 452c-4.527344-12.765625-14.65625-22.894531-27.421875-27.421875v-34.578125h90v-390h-210v390h90v34.578125c-12.765625 4.527344-22.894531 14.65625-27.421875 27.421875h-187.15625c-4.527344-12.765625-14.65625-22.894531-27.421875-27.421875v-34.578125h90v-390h-210v390h90v34.578125c-12.765625 4.527344-22.894531 14.65625-27.421875 27.421875h-77.578125v30h77.578125c6.195313 17.460938 22.867187 30 42.421875 30s36.226562-12.539062 42.421875-30h187.15625c6.195313 17.460938 22.867187 30 42.421875 30s36.226562-12.539062 42.421875-30h77.578125v-30zm-314.421875-152c-8.269531 0-15-6.730469-15-15s6.730469-15 15-15 15 6.730469 15 15-6.730469 15-15 15zm-75 60v-330h150v330h-60v-32.578125c17.460938-6.195313 30-22.867187 30-42.421875 0-24.8125-20.1875-45-45-45s-45 20.1875-45 45c0 19.554688 12.539062 36.226562 30 42.421875v32.578125zm75 122c-8.269531 0-15-6.730469-15-15s6.730469-15 15-15 15 6.730469 15 15-6.730469 15-15 15zm272-182c-8.269531 0-15-6.730469-15-15s6.730469-15 15-15 15 6.730469 15 15-6.730469 15-15 15zm-75 60v-330h150v330h-60v-32.578125c17.460938-6.195313 30-22.867187 30-42.421875 0-24.8125-20.1875-45-45-45s-45 20.1875-45 45c0 19.554688 12.539062 36.226562 30 42.421875v32.578125zm75 122c-8.269531 0-15-6.730469-15-15s6.730469-15 15-15 15 6.730469 15 15-6.730469 15-15 15zm0 0"/></svg>