<?xml version="1.0" encoding="UTF-8"?>
<!DOCTYPE svg PUBLIC "-//W3C//DTD SVG 1.1//EN" "http://www.w3.org/Graphics/SVG/1.1/DTD/svg11.dtd">
<!-- Creator: CorelDRAW X7 -->
<svg xmlns="http://www.w3.org/2000/svg" xml:space="preserve" width="100" height="100" version="1.1" style="shape-rendering:geometricPrecision; text-rendering:geometricPrecision; image-rendering:optimizeQuality; fill-rule:evenodd; clip-rule:evenodd"
viewBox="0 0 4200 3500"
 xmlns:xlink="http://www.w3.org/1999/xlink">
 <defs>
  <style type="text/css">
   <![CDATA[
    .fil1 {fill:#0E82E2}
    .fil0 {fill:#0E82E2;fill-rule:nonzero}
   ]]>
  </style>
 </defs>
 <g id="Layer_x0020_1">
  <metadata id="CorelCorpID_0Corel-Layer"/>
  <g id="_2383845018784">
   <path class="fil0" d="M1649 1725c29,0 57,4 85,11 63,16 120,50 161,98 42,50 67,113 67,188 0,27 -3,56 -11,87 -22,85 -66,149 -125,197 -64,51 -145,81 -234,95 -81,13 -163,1 -237,-24 -92,-31 -173,-83 -221,-130 -208,-201 -280,-450 -270,-708 9,-236 88,-478 194,-696 -213,163 -370,382 -454,626 -107,309 -98,657 64,977 90,180 207,337 348,468 138,129 300,232 484,307 254,102 528,132 793,96 268,-36 527,-140 748,-306 277,-209 476,-517 569,-854 89,-327 78,-679 -62,-990 -109,-242 -283,-443 -491,-603 -135,-104 -285,-191 -442,-262 150,137 311,306 428,485 140,216 217,449 142,665l-2 3c-21,60 -49,111 -84,156 -35,45 -77,84 -124,118 -66,48 -134,70 -201,71 -71,0 -140,-24 -205,-67 -31,-21 -39,-63 -18,-94 7,-11 17,-19 28,-24l0 0c19,-9 59,-46 92,-109 3,-8 7,-15 10,-23 -34,9 -68,12 -96,6 -37,-7 -61,-43 -53,-79 0,-2 1,-5 1,-7 13,-60 22,-124 27,-187l1 -12c-55,52 -122,102 -189,118 -37,8 -73,-15 -82,-51 -3,-12 -2,-25 2,-36 6,-25 12,-62 16,-105 -67,78 -185,174 -405,285l0 0 0 0 -5 2c-2,1 -3,2 -5,2 -132,67 -356,180 -361,331 17,-7 32,-12 49,-17l0 0c20,-5 41,-8 68,-8zm52 142c-17,-4 -34,-6 -52,-6 -15,0 -25,1 -34,3l0 0 0 0c-10,3 -22,7 -36,13 -7,3 -15,9 -21,14 -15,11 -27,20 -48,25 -55,11 -88,-10 -107,-101 -56,-271 254,-428 430,-516 1,-1 3,-2 5,-3l5 -2 0 0c355,-178 403,-302 428,-368 10,-25 17,-44 34,-64l0 0c8,-9 19,-17 32,-20 36,-11 74,10 84,46 18,61 24,125 24,184 0,19 0,38 -2,56 42,-36 81,-79 107,-107 20,-21 34,-37 46,-45l0 0c11,-7 24,-12 38,-12 37,0 67,30 67,68 1,61 -1,128 -6,195 -3,36 -7,74 -13,111 15,-8 29,-18 38,-30 12,-18 33,-30 57,-30 37,0 68,30 68,67 0,87 -23,162 -54,222 -19,36 -40,67 -62,92 15,4 30,6 44,6 40,0 81,-15 123,-45 37,-27 69,-57 96,-92 27,-34 48,-72 64,-118l1 -3c59,-169 -8,-362 -128,-547 -197,-304 -534,-579 -707,-702 -24,-16 -36,-46 -28,-75 10,-36 47,-57 83,-47 305,86 608,225 863,421 225,173 412,390 531,655 153,340 166,725 69,1081 -100,364 -317,699 -618,926 -240,180 -521,292 -811,332 -288,39 -586,6 -861,-105 -200,-81 -376,-193 -526,-333 -153,-142 -279,-312 -377,-506 -179,-355 -189,-740 -71,-1082 122,-352 381,-658 735,-837l0 0 1 0c20,-10 45,-10 65,2 32,20 42,61 23,93 -154,251 -290,565 -301,861 -9,222 52,435 229,606 36,35 98,74 170,99 55,19 115,28 173,19 66,-11 126,-32 171,-68 36,-29 64,-70 78,-124 5,-20 7,-38 7,-54 0,-41 -14,-75 -35,-100 -23,-27 -55,-46 -91,-55z"/>
   <circle class="fil1" cx="2095" cy="1598" r="95"/>
   <circle class="fil1" cx="1480" cy="507" r="95"/>
   <path class="fil0" d="M3334 2059c9,-37 45,-59 82,-50 36,8 58,45 50,81 -65,270 -206,515 -405,705 -192,185 -438,318 -719,373 -237,46 -472,31 -689,-34 -224,-68 -429,-190 -595,-353 -27,-26 -27,-69 -1,-96 26,-26 69,-27 96,-1 150,149 335,259 539,320 196,59 409,73 624,31 255,-50 477,-170 652,-337 180,-173 308,-395 366,-639z"/>
   <circle class="fil1" transform="matrix(1.13684 0.256687 -0.256687 1.13684 3453 1839.11)" r="81"/>
  </g>
 </g>
</svg>
