<?xml version="1.0" encoding="UTF-8"?>
<!DOCTYPE svg PUBLIC "-//W3C//DTD SVG 1.1//EN" "http://www.w3.org/Graphics/SVG/1.1/DTD/svg11.dtd">
<!-- Creator: CorelDRAW X7 -->
<svg xmlns="http://www.w3.org/2000/svg" xml:space="preserve" width="100" height="100" version="1.1" style="shape-rendering:geometricPrecision; text-rendering:geometricPrecision; image-rendering:optimizeQuality; fill-rule:evenodd; clip-rule:evenodd"
viewBox="0 0 4200 3500"
 xmlns:xlink="http://www.w3.org/1999/xlink">
 <defs>
  <style type="text/css">
   <![CDATA[
    .fil1 {fill:#0E82E2}
    .fil0 {fill:#0E82E2;fill-rule:nonzero}
   ]]>
  </style>
 </defs>
 <g id="Layer_x0020_1">
  <metadata id="CorelCorpID_0Corel-Layer"/>
  <g id="_2420167258160">
   <path class="fil0" d="M2857 207c32,0 59,27 59,60 0,32 -27,59 -59,59l-1988 0c-61,0 -116,26 -156,68l0 0 0 1c-41,43 -66,102 -66,168l0 1068 0 562c0,66 25,126 66,169 1,1 2,2 3,3 39,40 93,65 153,65l178 0 2284 0c61,0 116,-26 156,-68 1,-1 2,-2 3,-3 39,-43 63,-101 63,-166l0 -1630c0,-66 -25,-126 -66,-169l0 1c-40,-43 -95,-69 -156,-69l-46 0c-33,0 -59,-27 -59,-59 0,-33 26,-60 59,-60l46 0c94,0 180,41 242,106l-1 0 1 0c61,65 99,153 99,250l0 1630c0,95 -37,182 -96,246 -1,2 -2,3 -3,4 -62,65 -148,106 -242,106l-2284 0 -178 0c-93,0 -177,-39 -238,-103 -1,-1 -2,-2 -4,-3 -61,-64 -99,-153 -99,-250l0 -562 0 -1068c0,-97 38,-185 99,-250l1 0c61,-65 147,-106 241,-106l1988 0z"/>
   <path class="fil0" d="M1736 2847c0,-33 27,-60 60,-60 32,0 59,27 59,60l0 109c0,87 -44,150 -111,198 -59,41 -135,70 -212,94l-204 63c-31,9 -64,-8 -73,-39 -10,-31 7,-65 39,-74l203 -63c68,-21 132,-45 178,-78 37,-26 61,-58 61,-101l0 -109z"/>
   <path class="fil0" d="M1311 3314c-33,0 -59,-27 -59,-60 0,-32 26,-59 59,-59l1578 0c33,0 59,27 59,59 0,33 -26,60 -59,60l-1578 0z"/>
   <circle class="fil1" cx="1796" cy="2658" r="80"/>
   <path class="fil0" d="M2650 565l-1618 0c-48,0 -91,20 -122,51 -31,32 -51,76 -51,124l0 841 0 443c0,48 19,92 51,123 31,32 74,51 122,51l147 0 1979 0c47,0 90,-19 122,-51 31,-31 51,-75 51,-123l0 -1284c0,-49 -20,-92 -51,-124 -32,-31 -75,-51 -122,-51l-508 0zm-1618 -118l1618 0 508 0c80,0 153,33 206,86 52,53 85,126 85,207l0 1284c0,80 -33,153 -85,207 -53,53 -126,86 -206,86l-1979 0 -147 0c-80,0 -153,-33 -206,-86 -53,-54 -85,-127 -85,-207l0 -443 0 -841c0,-81 32,-154 85,-207 53,-53 126,-86 206,-86z"/>
   <path class="fil0" d="M2345 2642c0,-33 27,-59 59,-59 33,0 60,26 60,59l0 314c0,43 24,75 61,101 46,33 110,57 178,78l203 63c32,9 49,43 40,74 -10,31 -43,48 -74,39l-204 -63c-77,-24 -153,-53 -212,-94 -67,-48 -111,-111 -111,-198l0 -314z"/>
   <g>
    <path class="fil0" d="M2072 1404l-13 -6 0 0 -1 -1 -464 -246 0 510 501 293 501 -293 0 -516 -460 250c-2,1 -3,2 -5,3l-14 6c-13,7 -30,8 -45,0zm23 -102l487 -264 -487 264zm504 -272c7,-2 14,-3 22,-3 21,0 40,8 54,22 2,1 3,3 4,5 12,13 18,30 18,49l0 572c0,3 0,6 0,8 -1,11 -5,21 -10,30 -7,12 -16,21 -28,28l-1 1 -538 314c-16,10 -36,9 -52,0l-537 -315 0 0c-12,-7 -22,-16 -28,-28 -6,-9 -9,-19 -10,-30 -1,-2 -1,-5 -1,-8l0 -572 0 0 0 -36c0,-28 23,-51 51,-51 8,0 16,2 24,6l0 0 528 280 504 -272zm0 0l0 0 0 0z"/>
   </g>
   <path class="fil0" d="M1593 1145c0,28 -22,51 -50,51 -28,0 -51,-23 -51,-51l0 -78c0,-28 23,-51 51,-51 28,0 51,23 51,51l-1 78zm250 -206c-24,13 -55,5 -69,-19 -14,-25 -5,-56 19,-70 98,-55 167,-91 212,-115 20,-10 35,-18 46,-25 13,-7 27,-10 40,-10 14,1 27,4 38,11l0 -1 542 294c17,9 26,27 26,45l0 0 0 99c0,28 -22,51 -50,51 -28,0 -51,-23 -51,-51l0 -69 -506 -274c-10,5 -22,12 -38,20 -45,23 -114,60 -209,114z"/>
   <path class="fil0" d="M1968 1461c-15,-9 -29,-18 -44,-27 -9,17 -19,34 -28,51 -10,17 -19,33 -28,50 -9,16 -18,33 -27,49 -10,16 -18,32 -27,48 -9,-29 -19,-57 -28,-85 -8,-29 -17,-57 -26,-84 -9,-28 -18,-55 -26,-83 -9,-27 -17,-54 -26,-81 -13,-8 -26,-16 -38,-23 10,32 20,65 31,97 10,33 21,67 31,100 11,34 22,68 33,102 11,35 22,70 33,105 10,7 19,14 29,21 11,-19 23,-38 34,-58 11,-19 23,-39 35,-59 11,-20 23,-40 35,-61 12,-20 24,-41 37,-62z"/>
   <path class="fil0" d="M1939 1468l-7 -5 -18 32 -28 50 -27 49 -6 10 -21 38c-4,8 -12,12 -20,11l4 14 5 3 22 -37 34 -60 36 -61 26 -44zm-4 -52l44 27 0 0c10,6 13,19 7,29l-37 62 -35 61 -35 59 -33 57c-1,1 -1,2 -2,3 -7,9 -20,11 -29,4l-15 -11 -14 -10c-4,-2 -7,-6 -8,-11l-33 -104 0 0 -32 -101c0,0 -1,-1 -1,-2l-31 -99 -31 -98 0 0c-2,-6 -1,-12 2,-18 6,-10 19,-13 29,-6 7,4 19,11 31,19l6 4c5,3 9,7 10,12l26 81 26 82 27 84 0 3 12 36 3 -5 27 -49 28 -50 28 -50c0,-1 1,-2 1,-2 6,-10 19,-13 29,-7z"/>
   <path class="fil0" d="M2240 1751c11,-6 23,-13 34,-19 0,-40 0,-80 0,-121 0,-40 0,-81 0,-121 17,16 33,32 49,48 16,16 32,31 48,47 2,-1 3,-2 5,-3 16,-33 31,-66 47,-99 16,-33 31,-65 47,-98 -1,40 -1,79 -1,119 -1,39 -1,78 -1,117 10,-6 21,-11 31,-17 0,-48 1,-97 1,-145 0,-48 1,-97 1,-146 -10,5 -20,10 -30,15 -15,34 -31,67 -47,101 -16,33 -32,67 -48,101 -16,-16 -33,-33 -50,-49 -17,-17 -34,-34 -51,-51 -12,6 -23,12 -35,17 0,51 0,102 0,153 0,51 0,101 0,151z"/>
   <path class="fil0" d="M2284 1750l-32 19c-3,2 -7,3 -12,3 -11,0 -21,-9 -21,-21l0 -151 0 -153 0 0c0,-7 4,-15 12,-18l34 -18c8,-4 18,-3 24,4l52 50 29 29 35 -74 47 -101 0 0c2,-4 5,-7 10,-10l30 -15 0 0c2,-1 6,-2 9,-2 12,0 21,9 21,21l-1 146 -1 144c0,8 -4,15 -11,19l-31 18 0 0c-3,1 -6,2 -10,2 -12,0 -21,-9 -21,-21l1 -117 0 -24 -5 11 -1 1 -47 99 0 0c-2,4 -5,7 -9,10l-3 2c-9,5 -20,4 -27,-3l-17 -17 -31 -30 -13 -13 0 71 0 120c0,8 -4,15 -11,19zm-23 -277c4,-3 8,-5 13,-5 6,0 11,3 15,7l0 0 49 48 29 28 1 -2 -1 0c-2,-1 -4,-3 -6,-4l-50 -49 -40 -40 -10 4 0 13zm216 -107l2 0 1 1 0 -7 -3 6z"/>
   <path class="fil0" d="M2044 1358c0,-28 23,-51 51,-51 28,0 51,23 51,51l0 572c0,29 -23,51 -51,51 -28,0 -51,-22 -51,-51l0 -572z"/>
   <circle class="fil1" cx="3066" cy="267" r="80"/>
   <circle class="fil1" cx="1685" cy="974" r="64"/>
  </g>
 </g>
</svg>
